<?xml version="1.0" standalone="no"?>
<!DOCTYPE svg PUBLIC "-//W3C//DTD SVG 20010904//EN"
 "http://www.w3.org/TR/2001/REC-SVG-20010904/DTD/svg10.dtd">
<svg version="1.0" xmlns="http://www.w3.org/2000/svg"
 width="620.000000pt" height="380.000000pt" viewBox="0 0 620.000000 380.000000"
 preserveAspectRatio="xMidYMid meet">

<g transform="translate(0.000000,380.000000) scale(0.100000,-0.100000)"
fill="#000000" stroke="none">
<path d="M3460 3782 c0 -10 -9 -26 -21 -35 -13 -12 -18 -24 -14 -35 19 -45 35
-108 31 -119 -11 -29 -26 -10 -26 32 0 25 -4 45 -9 45 -5 0 -7 10 -3 22 3 13
1 19 -5 15 -15 -9 -44 -97 -32 -97 5 0 9 7 9 15 0 8 5 15 10 15 6 0 10 -12 9
-27 0 -16 2 -39 6 -53 l6 -25 -15 25 -14 25 -10 -26 c-30 -78 -35 -109 -22
-133 9 -18 10 -31 1 -53 l-11 -28 6 32 c4 25 0 38 -19 58 l-24 26 5 -30 c3
-24 0 -31 -12 -31 -10 0 -13 -5 -9 -17 4 -11 3 -14 -6 -9 -7 5 -10 15 -6 24 3
8 0 19 -6 23 -8 4 -12 33 -12 73 0 36 -4 66 -9 66 -5 0 -8 -54 -6 -125 2 -69
0 -125 -4 -125 -4 0 -8 6 -8 13 0 9 -3 8 -9 -2 -5 -7 -6 -23 -4 -35 4 -16 2
-18 -5 -7 -5 8 -11 61 -11 119 -1 58 -4 108 -6 111 -3 2 -5 -41 -5 -97 0 -55
-4 -103 -9 -106 -10 -6 -2 -56 9 -56 4 0 7 -18 6 -40 0 -28 -5 -39 -13 -35
-22 8 -14 -22 10 -38 12 -8 19 -18 15 -22 -4 -4 -13 -3 -21 3 -10 9 -15 4 -24
-18 -9 -25 -9 -30 4 -30 9 0 13 6 9 15 -3 9 0 15 9 15 20 0 19 -6 -10 -65 -27
-54 -30 -65 -17 -65 4 0 14 16 21 35 7 20 21 41 32 48 10 6 19 23 20 37 l0 25
10 -23 c11 -28 4 -42 -19 -42 -11 0 -13 -3 -5 -11 11 -11 -1 -39 -48 -114 -14
-22 -28 -48 -32 -57 -3 -10 -16 -18 -28 -18 -21 0 -21 3 -15 57 5 43 4 55 -4
47 -20 -20 -24 -90 -7 -114 8 -12 13 -29 10 -39 -5 -18 25 -57 35 -46 3 3 0
11 -6 17 -15 15 -16 48 -2 48 6 0 10 7 10 15 0 8 7 15 15 15 8 0 15 8 16 18 0
9 9 31 20 47 10 17 23 40 29 53 5 12 16 22 25 22 18 0 18 -1 1 -36 -14 -26
-13 -44 3 -44 4 0 12 12 18 28 l11 27 -3 -32 c-1 -17 -12 -44 -24 -58 -11 -15
-21 -33 -21 -40 0 -7 -9 -24 -20 -38 -21 -27 -26 -47 -10 -47 5 0 18 19 30 43
45 91 51 99 66 86 19 -16 19 -53 0 -46 -10 4 -13 1 -10 -8 3 -8 -3 -27 -14
-42 -25 -36 -37 -73 -23 -73 6 0 11 7 11 16 0 22 70 115 81 108 5 -3 9 -13 9
-22 0 -15 -2 -15 -10 -2 -10 15 -14 8 -11 -21 1 -9 -12 -37 -29 -62 -16 -25
-30 -56 -30 -69 0 -17 -8 -27 -29 -34 -26 -11 -29 -9 -40 23 -7 18 -16 31 -21
28 -4 -3 -11 6 -14 19 -5 19 -11 23 -27 19 -15 -4 -17 -8 -8 -14 10 -6 10 -13
1 -34 -13 -29 -32 -25 -32 7 0 17 -5 20 -36 16 -31 -4 -34 -3 -19 9 17 11 16
13 -8 22 -18 7 -24 15 -21 28 3 10 1 29 -5 43 -7 19 -10 20 -10 7 -1 -10 -8
-26 -17 -34 -13 -14 -17 -14 -26 -2 -8 11 -9 10 -4 -3 3 -10 1 -18 -4 -18 -18
0 -10 47 12 75 21 27 21 27 0 16 -11 -6 -28 -29 -38 -51 -17 -37 -34 -53 -34
-30 0 6 -5 10 -11 10 -13 0 -1 -42 15 -52 6 -4 8 -10 5 -13 -9 -8 -39 6 -39
19 0 6 -6 23 -14 38 -12 22 -12 29 -1 38 10 8 15 7 18 -7 3 -10 5 -5 4 11 -2
30 -27 51 -27 23 0 -20 -27 -29 -51 -17 -15 8 -18 17 -13 38 4 15 10 29 13 32
11 9 31 49 31 62 0 6 -7 3 -15 -8 -13 -18 -14 -18 -15 -1 0 10 7 25 15 33 8 9
15 22 15 30 0 13 -2 13 -16 0 -8 -9 -20 -16 -25 -16 -5 0 -9 -8 -9 -19 0 -21
-23 -45 -33 -34 -13 13 -7 53 8 53 8 0 12 6 9 14 -3 7 2 16 12 20 13 5 14 9 4
21 -10 12 -10 15 2 15 8 0 15 6 15 13 0 6 4 20 8 30 4 10 3 17 -4 17 -6 0 -22
-22 -36 -50 -14 -27 -32 -50 -40 -50 -18 0 -7 32 31 90 15 22 24 43 21 47 -8
7 -46 -37 -47 -54 0 -18 -30 -16 -30 1 0 7 7 19 15 26 8 7 15 19 15 27 0 13
-3 13 -15 3 -21 -17 -29 -7 -15 19 14 27 3 27 -26 0 -18 -17 -20 -26 -13 -57
6 -28 4 -43 -7 -60 -20 -31 -28 -22 -12 13 10 23 10 28 -5 36 -21 12 -22 35
-2 43 9 3 15 18 15 36 0 53 55 140 89 140 13 0 13 2 2 9 -9 6 -23 0 -42 -19
-16 -15 -29 -31 -29 -36 -1 -17 -68 -85 -75 -74 -3 5 -2 10 4 10 6 0 8 6 5 14
-3 8 2 26 12 41 9 14 13 29 9 33 -4 4 -10 1 -12 -6 -3 -7 -12 -20 -21 -29 -10
-9 -18 -20 -18 -25 -1 -4 -2 -13 -3 -19 -1 -12 -21 -2 -21 11 0 5 6 15 13 22
14 14 43 106 35 113 -3 3 -10 -13 -17 -35 -7 -24 -16 -38 -23 -34 -6 4 -8 -1
-3 -15 4 -14 1 -23 -9 -27 -9 -3 -16 -12 -16 -20 0 -8 -4 -14 -10 -14 -13 0
-13 27 1 35 6 4 8 13 5 20 -3 8 1 18 7 24 7 5 13 31 14 58 0 26 -2 39 -4 28
-9 -37 -22 -39 -36 -5 -13 29 -16 31 -24 15 -15 -26 -26 -1 -12 27 17 35 69
72 98 70 14 -1 91 -9 171 -17 79 -8 146 -13 148 -11 5 6 -177 35 -258 41 -163
14 -175 18 -166 58 5 21 -12 23 -21 1 -3 -9 0 -20 8 -25 17 -11 -265 -4 -337
8 -40 7 -57 17 -86 48 -43 48 -134 96 -193 103 -65 7 -112 -14 -179 -81 -63
-63 -92 -113 -102 -178 -8 -49 34 -160 78 -206 30 -31 30 -32 18 -85 -22 -96
-31 -142 -50 -238 -10 -52 -27 -138 -38 -190 -86 -413 -118 -640 -91 -640 7 0
9 9 5 23 -5 23 17 171 49 317 8 41 27 140 41 220 13 80 29 159 34 175 5 17 14
62 20 100 11 73 49 255 57 267 2 4 18 -1 35 -10 l31 -18 -2 -354 c-2 -338 15
-789 30 -773 3 5 3 64 -2 133 -4 69 -8 320 -8 558 l0 433 52 -3 c59 -3 59 -4
92 -150 16 -67 16 -80 4 -95 -9 -11 -10 -14 -2 -9 20 11 38 -36 24 -62 -13
-25 -14 -43 -1 -22 15 24 20 6 8 -32 -6 -21 -16 -34 -23 -32 -7 3 -11 -4 -10
-17 1 -13 7 -25 13 -27 7 -2 12 -13 12 -24 0 -17 -3 -18 -15 -8 -23 19 -20
-22 5 -51 l19 -24 1 33 c0 19 9 42 20 54 17 19 20 19 20 4 0 -23 -38 -96 -50
-96 -6 0 -10 -6 -10 -14 0 -7 -9 -16 -20 -19 -20 -5 -29 -37 -10 -37 6 0 10 7
10 15 0 8 6 12 14 9 18 -7 4 -63 -21 -82 -15 -11 -16 -15 -4 -34 12 -19 11
-23 -5 -35 -17 -12 -17 -13 3 -13 34 0 52 -10 46 -26 -9 -23 11 -16 22 8 6 12
15 23 20 25 12 4 37 -70 26 -77 -5 -3 -11 -15 -15 -27 -4 -13 -12 -23 -17 -23
-6 0 -7 -5 -3 -11 4 -7 20 3 42 27 20 22 32 30 28 19 -16 -40 -18 -55 -7 -55
6 0 11 -17 11 -40 0 -22 -4 -40 -9 -40 -14 0 -23 37 -16 60 9 30 -14 25 -25
-6 -13 -33 -13 -34 4 -34 18 0 29 -31 20 -54 -3 -9 -1 -16 5 -16 7 0 14 7 17
15 9 22 24 18 24 -5 0 -13 -7 -20 -19 -20 -14 0 -18 -5 -14 -18 5 -22 -22 -49
-32 -32 -4 6 -1 18 6 26 14 17 6 29 -16 21 -8 -4 -15 -16 -15 -27 0 -11 -4
-20 -10 -20 -5 0 -10 -4 -10 -10 0 -5 10 -9 23 -7 17 2 22 -3 20 -20 -3 -28
17 -30 24 -3 3 11 9 20 13 20 4 0 10 14 13 30 4 17 11 30 17 30 15 0 12 -15
-12 -62 -27 -54 -24 -51 -51 -54 -12 -1 -25 -3 -29 -3 -5 -1 -8 -6 -8 -12 0
-6 9 -9 20 -6 28 7 26 -18 -4 -57 -28 -37 -42 -76 -27 -76 21 0 11 -42 -20
-86 -17 -25 -34 -43 -37 -40 -3 4 0 12 6 18 7 7 12 20 12 30 0 10 3 18 8 18
16 0 34 42 23 53 -8 8 -11 8 -11 -1 0 -18 -35 -14 -53 6 -10 10 -17 31 -17 45
0 34 -24 36 -26 2 -1 -17 7 -32 27 -46 33 -23 36 -48 12 -90 -26 -44 -35 -35
-28 29 4 40 2 52 -5 42 -5 -8 -10 -38 -10 -65 0 -28 -6 -57 -12 -63 -10 -10
-10 -14 -1 -20 7 -5 12 -28 11 -55 -1 -48 -14 -70 -28 -48 -4 8 -10 -3 -14
-26 -5 -31 -2 -41 13 -51 17 -12 18 -15 4 -43 -8 -16 -19 -27 -24 -24 -8 6
-14 -36 -11 -80 2 -14 0 -16 -6 -7 -7 10 -11 10 -22 -3 -11 -13 -7 -19 11 -17
10 2 -2 -37 -12 -44 -8 -5 -13 9 -10 29 2 12 -8 8 -30 -14 l-20 -20 20 -6 c12
-3 21 -12 21 -19 0 -17 12 -18 27 -3 7 7 12 4 16 -10 3 -12 1 -24 -4 -27 -5
-3 -9 -14 -9 -24 0 -10 -5 -20 -12 -22 -6 -2 -12 -11 -13 -19 -3 -20 -58 -130
-100 -203 -38 -64 -39 -66 -25 -66 5 0 18 20 29 45 11 25 25 45 30 45 6 0 11
7 11 16 0 8 14 35 30 59 17 24 30 51 30 59 0 9 4 16 9 16 15 0 25 -100 11
-113 -10 -10 -11 -4 -6 26 4 21 3 37 -2 37 -14 0 -26 -74 -13 -78 6 -2 11 -8
11 -13 0 -5 -3 -8 -7 -7 -11 4 -12 -13 -3 -37 l8 -20 7 20 c19 55 24 59 20 15
-2 -25 -4 -52 -4 -61 -1 -9 -14 -31 -31 -49 -16 -18 -30 -34 -30 -37 0 -7 32
18 46 36 17 21 37 3 32 -30 -3 -15 -1 -26 3 -24 4 3 13 -2 20 -11 12 -14 14
-14 20 3 7 16 8 16 8 -3 1 -28 -9 -36 -27 -21 -13 10 -14 8 -8 -11 6 -18 2
-27 -19 -44 -30 -23 -31 -61 -2 -66 15 -3 17 1 11 23 -5 21 -1 32 19 50 l25
24 -2 -41 c-2 -30 -9 -47 -30 -64 -15 -13 -25 -28 -21 -33 3 -6 -2 -14 -11
-19 -14 -8 -12 -10 11 -16 33 -8 42 -2 26 18 -8 10 -9 16 -1 21 6 3 8 10 5 15
-3 5 6 12 20 16 14 3 25 13 25 21 0 9 6 12 18 9 14 -5 18 -1 18 16 -1 36 29
33 48 -4 l16 -33 -3 36 c-2 20 -7 41 -11 47 -3 6 -2 13 3 17 6 3 13 -11 16
-32 12 -68 14 -70 45 -33 20 24 30 30 30 19 0 -9 -11 -24 -25 -33 -14 -9 -25
-23 -25 -31 0 -8 -7 -15 -16 -15 -20 0 -44 24 -44 44 0 8 -5 18 -11 22 -8 5
-10 -1 -5 -19 3 -14 1 -29 -4 -32 -6 -4 -3 -13 9 -23 24 -21 39 -67 20 -60 -8
3 -13 12 -11 21 3 19 -50 49 -72 41 -22 -8 -20 -24 3 -24 20 0 39 -32 22 -38
-19 -6 -12 -22 9 -22 11 0 20 -5 20 -11 0 -6 -6 -9 -12 -6 -7 2 -21 -2 -30
-11 -10 -8 -18 -10 -18 -4 0 6 6 12 13 15 19 7 5 15 -32 19 -23 2 -36 -2 -39
-11 -3 -10 0 -12 12 -8 18 7 23 -18 5 -28 -6 -4 -8 -13 -5 -21 3 -7 -5 -20
-17 -29 -12 -8 -16 -15 -8 -15 27 0 3 -25 -34 -36 -21 -6 -41 -16 -43 -23 -3
-10 0 -10 16 -2 37 20 53 14 46 -16 -4 -16 -9 -32 -13 -38 -10 -18 -11 -45 -2
-45 5 0 12 6 14 13 4 8 6 7 6 -3 1 -8 -9 -20 -21 -25 -20 -9 -23 -18 -24 -65
l-2 -55 12 48 c6 27 19 53 29 58 9 6 17 19 17 29 0 10 5 22 12 26 8 5 9 -2 5
-27 -5 -24 -4 -30 3 -19 5 8 10 22 10 31 0 9 7 22 15 29 9 8 15 9 15 2 0 -6
-4 -14 -10 -17 -5 -3 -10 -13 -10 -21 0 -8 3 -13 8 -11 4 3 13 -1 20 -9 10
-11 8 -15 -13 -20 -14 -3 -25 -10 -25 -15 0 -13 12 -11 34 6 22 17 50 20 41 6
-11 -20 15 -21 34 -2 30 30 62 44 73 33 7 -7 0 -15 -20 -26 -25 -13 -41 -39
-42 -69 0 -5 11 0 24 10 13 11 43 25 67 33 24 8 47 19 51 25 5 6 8 3 8 -7 0
-11 8 -18 20 -18 13 0 20 7 20 19 0 11 9 21 22 24 30 8 35 1 9 -13 l-21 -11
23 -25 c25 -26 49 -32 82 -18 19 7 19 6 5 -12 -8 -10 -19 -22 -25 -26 -5 -4
-6 -10 -2 -15 5 -4 11 -3 15 3 8 13 46 34 61 34 18 0 12 -18 -8 -25 -10 -3
-21 -14 -24 -25 -3 -10 -17 -22 -31 -25 -14 -3 -38 -7 -52 -10 -15 -4 -24 -8
-22 -11 5 -4 119 10 168 22 14 3 37 5 52 5 29 0 45 13 29 23 -5 3 -25 -1 -45
-9 -20 -9 -36 -11 -36 -5 0 11 52 40 73 40 8 0 14 8 13 17 0 10 8 19 19 21 11
2 17 1 13 -3 -12 -13 12 -34 30 -28 9 4 25 15 35 26 9 11 17 16 17 10 0 -5
-17 -26 -37 -46 -20 -21 -31 -37 -24 -37 6 0 28 17 49 39 38 39 82 62 82 42 0
-6 -7 -11 -15 -11 -8 0 -15 -4 -15 -9 0 -5 -9 -13 -20 -16 -31 -10 -25 -35 8
-35 15 0 33 -5 39 -11 7 -7 13 -7 17 0 8 12 -28 33 -39 23 -4 -4 -6 0 -3 8 3
8 14 15 25 14 12 0 20 6 19 15 -1 11 8 16 25 16 15 0 36 9 48 19 12 11 24 16
29 11 4 -4 1 -10 -7 -13 -7 -2 -23 -15 -34 -28 -11 -13 -27 -24 -34 -24 -7 0
-13 -10 -13 -22 0 -18 2 -20 10 -8 7 12 13 12 33 1 21 -11 28 -11 50 4 16 10
34 14 47 10 15 -5 20 -2 20 13 0 22 37 45 73 45 16 0 24 4 21 12 -6 14 23 28
38 18 7 -3 8 -1 4 5 -3 6 2 15 11 21 12 7 14 13 7 18 -6 5 -14 15 -18 23 -3 8
-4 5 -2 -8 3 -17 1 -22 -10 -18 -8 3 -14 0 -14 -7 0 -7 -9 -18 -20 -25 -12 -7
-20 -8 -20 -2 0 5 -9 10 -21 10 -11 0 -17 5 -14 10 4 6 11 8 16 5 5 -4 9 0 9
8 0 8 14 20 30 26 17 5 30 17 30 27 0 10 -5 14 -15 10 -17 -6 -21 9 -5 19 6 4
7 12 1 22 -5 9 -5 29 -1 44 5 15 6 30 3 33 -3 3 2 8 11 12 17 6 23 44 7 44 -5
0 -7 9 -4 19 3 12 11 17 19 14 8 -3 14 0 14 6 0 6 5 11 10 11 6 0 3 -11 -5
-24 -13 -19 -13 -25 -3 -28 10 -4 10 -10 -1 -31 -8 -15 -12 -30 -8 -33 3 -3 1
-17 -4 -31 -6 -16 -6 -30 0 -37 5 -6 11 -22 13 -36 l5 -25 11 25 c10 24 11 24
11 3 1 -13 6 -23 11 -23 15 0 8 61 -7 67 -8 3 -13 22 -12 47 l1 41 14 -30 14
-30 -1 30 c-4 69 2 155 10 155 5 0 9 -72 9 -161 0 -88 3 -163 6 -167 3 -3 7
55 8 129 3 227 3 231 21 244 21 15 22 25 2 25 -17 0 -20 16 -5 25 6 4 7 11 4
17 -4 6 6 21 22 33 16 13 25 27 21 32 -5 4 -13 0 -18 -10 -6 -9 -14 -17 -19
-17 -16 0 -11 32 8 53 9 11 11 17 3 12 -8 -4 -17 -2 -22 6 -6 10 -9 7 -10 -11
-1 -14 -1 -31 1 -39 4 -30 -10 -60 -25 -55 -16 7 -21 50 -6 56 5 2 13 21 17
43 6 34 5 38 -7 28 -12 -10 -14 -2 -11 55 3 64 12 84 45 95 5 1 8 9 6 16 -4
11 -8 10 -21 -3 -22 -22 -29 -8 -18 39 5 22 7 41 5 44 -8 8 -34 -20 -30 -32 3
-7 1 -18 -3 -24 -7 -10 -14 -10 -35 0 -26 12 -37 37 -16 37 14 0 81 51 75 58
-3 2 -17 -3 -32 -12 -40 -27 -42 -9 -3 27 58 53 58 53 39 147 -13 63 -18 74
-17 44 0 -48 -37 -110 -49 -80 -3 9 -1 23 5 30 9 11 9 15 -1 19 -11 4 -11 8 0
26 12 20 11 23 -8 28 -11 3 -19 11 -17 17 2 6 0 19 -5 29 -7 14 -5 22 9 33 11
8 14 17 8 21 -15 12 -47 85 -40 92 8 8 43 -37 57 -71 5 -16 14 -25 19 -22 5 3
9 -13 9 -36 0 -23 4 -39 9 -36 5 3 7 16 5 29 -2 12 2 5 9 -15 13 -40 29 -62
20 -29 -3 12 -1 21 6 21 20 0 24 -30 6 -50 -16 -17 -16 -23 4 -102 11 -46 23
-102 26 -125 4 -24 11 -46 17 -49 6 -4 8 1 4 13 -6 17 -18 79 -43 220 -4 25 0
37 21 57 20 21 24 33 19 56 -3 17 -12 30 -19 30 -16 0 -19 16 -5 24 5 3 12 -1
15 -10 3 -8 10 -12 16 -9 5 3 15 -7 22 -22 7 -15 17 -31 23 -35 5 -4 9 -33 7
-65 -1 -37 1 -53 7 -44 4 7 6 22 4 32 -7 25 13 24 27 -1 15 -28 -4 -85 -36
-113 -40 -35 -27 -40 15 -6 24 18 37 37 34 45 -3 8 -2 22 2 32 5 9 7 26 6 37
-3 20 -2 20 12 0 11 -14 13 -36 10 -80 -3 -42 -2 -56 6 -45 5 8 8 17 6 20 -1
3 4 11 12 19 12 11 15 10 20 -8 9 -37 24 -23 17 16 -5 30 -4 36 6 26 7 -7 12
-34 11 -64 0 -29 3 -49 7 -45 7 7 8 12 11 38 2 23 41 -32 41 -59 1 -24 3 -22
16 15 18 51 12 76 -16 69 -10 -3 -25 1 -31 9 -16 19 -3 30 16 14 12 -10 15
-10 15 3 0 8 -5 17 -12 19 -6 2 -12 14 -13 26 -1 12 -8 28 -17 35 -19 14 -33
57 -20 57 6 0 15 -14 21 -30 5 -17 15 -30 20 -30 6 0 11 -6 11 -14 0 -7 7 -19
15 -26 8 -7 15 -19 15 -27 0 -8 9 -22 19 -31 10 -10 22 -29 25 -44 5 -23 3
-25 -17 -20 -18 4 -20 3 -10 -9 15 -19 21 -64 7 -62 -5 1 -60 5 -120 9 l-111
7 -6 -93 c-4 -51 -7 -220 -7 -374 0 -155 -4 -296 -9 -314 l-10 -32 102 -1 c56
-1 116 -3 132 -4 17 -2 67 -5 113 -8 45 -2 85 -7 89 -10 3 -4 15 7 25 23 21
35 22 40 8 40 -5 0 -10 -7 -10 -15 0 -8 -5 -15 -11 -15 -9 0 -10 23 -4 83 4
45 7 122 6 170 0 67 3 89 13 93 8 3 19 19 25 36 15 41 13 48 -3 19 -9 -17 -15
-20 -21 -11 -9 14 -11 108 -2 116 2 3 15 -15 27 -40 12 -25 26 -49 32 -52 5
-4 7 -23 4 -43 -3 -20 -3 -30 0 -23 8 18 32 15 37 -5 2 -10 -4 -27 -12 -38
-16 -20 -16 -20 7 -1 22 19 22 19 22 -2 0 -11 -4 -24 -10 -27 -5 -3 -10 -10
-10 -16 0 -5 5 -9 10 -9 6 0 10 7 10 15 0 8 7 15 15 15 18 0 19 12 3 28 -9 9
-9 12 0 12 7 0 16 -8 19 -18 4 -9 19 -37 35 -61 33 -53 34 -57 8 -57 -16 0
-20 7 -20 31 0 16 -7 38 -14 48 -13 17 -14 17 -20 0 -4 -10 -2 -19 3 -21 6 -2
11 -14 11 -26 0 -12 5 -27 11 -33 7 -7 9 -23 5 -37 -7 -28 -26 -36 -26 -11 0
8 -4 15 -8 15 -5 0 -17 20 -28 45 -20 49 -29 55 -37 25 -3 -13 0 -20 9 -20 8
0 14 -9 14 -20 0 -10 6 -23 13 -27 6 -4 18 -18 25 -31 12 -21 9 -28 -24 -74
-35 -46 -39 -49 -51 -32 -7 10 -13 23 -13 28 -1 13 -50 75 -50 63 0 -13 51
-101 64 -109 8 -5 7 -13 -2 -29 -7 -11 -11 -24 -8 -27 7 -7 3 -11 56 71 25 37
47 67 50 67 3 0 13 -11 22 -24 19 -26 16 -33 -44 -112 -37 -49 -47 -74 -28
-74 6 0 10 5 10 11 0 15 81 129 91 129 15 0 10 19 -11 40 -22 22 -26 55 -10
65 6 4 8 16 5 28 -6 18 -2 17 19 -8 29 -34 30 -39 16 -66 -12 -21 -1 -26 18
-7 9 9 12 6 12 -15 0 -32 30 -52 50 -34 10 10 11 8 5 -8 -4 -11 -10 -36 -12
-55 -3 -37 2 -30 27 38 7 17 19 32 26 32 17 0 18 -22 3 -37 -9 -9 -7 -10 10
-6 25 6 26 4 6 -33 -17 -32 -20 -64 -6 -49 5 6 16 30 24 55 11 32 17 40 22 29
3 -9 -1 -33 -9 -53 -17 -41 -4 -49 16 -9 7 14 20 29 28 31 12 4 13 2 3 -9 -14
-14 -18 -49 -5 -49 4 1 18 23 31 51 13 28 25 48 28 46 2 -3 -5 -25 -16 -50
-23 -50 -26 -67 -12 -67 4 0 14 20 21 45 14 51 25 57 34 20 4 -14 11 -25 16
-25 13 0 13 1 -6 39 -20 40 -12 61 22 61 19 0 25 4 20 15 -3 8 -1 15 4 15 6 0
10 -11 10 -24 0 -20 -4 -24 -25 -21 -25 2 -31 -9 -19 -39 9 -24 23 -19 17 6
-5 19 -3 21 7 11 10 -10 11 -18 3 -35 -6 -13 -17 -36 -24 -53 -7 -16 -15 -33
-17 -37 -2 -5 1 -8 7 -8 5 0 19 20 29 44 11 24 25 47 31 50 6 4 11 16 11 27 0
26 30 70 42 63 5 -3 2 -11 -6 -17 -12 -9 -14 -19 -7 -42 l9 -30 1 33 c1 22 5
31 13 26 8 -5 9 1 5 22 -3 17 0 36 8 47 16 22 23 12 20 -30 -1 -19 3 -33 10
-33 7 0 9 13 7 35 -3 23 0 35 8 35 7 0 10 -6 7 -13 -2 -6 -1 -21 3 -33 7 -17
14 -20 42 -15 l33 5 -29 5 c-34 7 -44 39 -19 59 16 11 16 12 0 12 -9 0 -17 3
-17 6 0 17 24 46 50 59 20 10 30 23 30 38 0 27 15 53 24 39 6 -10 -48 -124
-56 -117 -2 2 -5 -11 -6 -30 -1 -18 3 -37 9 -40 14 -9 59 38 59 62 0 14 -5 12
-25 -11 -29 -34 -31 -25 -6 24 9 19 23 34 29 33 7 -2 12 7 12 19 0 16 3 19 11
11 8 -8 8 -17 -1 -33 -6 -12 -8 -25 -4 -28 4 -4 9 0 12 8 3 8 19 26 35 40 16
14 37 34 46 44 9 11 28 32 44 47 15 16 27 35 27 43 0 8 5 16 10 18 6 2 11 38
13 81 1 42 6 77 10 77 8 0 0 76 -10 93 -3 4 -11 3 -18 -3 -9 -8 -14 -2 -19 27
-3 21 -6 45 -6 53 0 13 1 13 10 0 5 -8 10 -25 10 -37 0 -13 5 -23 11 -23 7 0
10 12 7 30 -3 20 1 35 11 43 12 10 13 9 7 -1 -4 -7 -3 -18 2 -25 14 -18 25
-68 23 -104 -2 -18 2 -33 8 -33 6 0 15 -18 21 -40 6 -22 16 -40 21 -40 7 0 8
7 4 18 -4 9 -11 33 -15 53 -3 19 -10 40 -13 47 -12 18 -16 122 -5 122 6 0 8
28 5 73 -4 56 -2 76 10 90 17 18 8 23 -16 8 -10 -7 -14 -28 -12 -81 1 -48 -1
-70 -8 -65 -6 3 -11 19 -11 34 0 15 -3 31 -7 35 -5 4 -8 11 -8 14 -1 4 -5 17
-9 30 -4 13 -3 28 2 35 5 7 12 24 16 39 3 14 9 34 12 43 6 14 3 16 -14 11 -17
-6 -24 -1 -36 23 -20 37 -20 41 -2 41 7 0 16 10 20 23 l6 22 20 -25 c11 -14
20 -31 20 -38 0 -18 30 -75 37 -69 5 5 -12 48 -45 113 -13 27 -13 37 -3 62 13
32 7 72 -10 72 -6 0 -7 -9 -4 -20 10 -31 -24 -110 -52 -121 -16 -6 -23 -17
-23 -36 l-1 -28 -14 34 c-19 42 -19 62 0 37 13 -18 15 -18 21 -2 9 23 -24 47
-59 43 -20 -3 -25 -1 -17 7 11 11 14 12 58 14 14 1 21 6 16 13 -4 7 -22 9 -45
6 -28 -4 -39 -1 -39 8 0 17 50 29 63 16 6 -6 19 -11 29 -11 9 0 22 -8 27 -17
6 -10 11 -13 11 -8 0 18 -30 55 -46 55 -19 0 -18 26 1 34 8 3 22 3 30 0 8 -4
15 -2 15 4 0 5 -7 13 -16 16 -17 7 -35 -4 -67 -39 -18 -20 -18 -20 -14 3 4 14
0 22 -9 22 -15 0 -17 9 -8 34 7 19 79 22 90 5 12 -20 27 22 25 70 -1 39 2 48
21 56 24 11 36 35 18 35 -15 0 -49 40 -50 58 0 9 -10 11 -32 8 -73 -12 -134
-15 -147 -7 -11 7 68 20 153 25 5 1 11 6 13 13 3 8 -6 10 -31 6 -46 -7 -46 3
-5 91 21 45 34 93 41 149 5 45 21 124 34 175 25 92 25 112 -1 112 -19 0 -41
-35 -64 -101 -26 -73 -44 -77 -37 -8 19 192 16 238 -17 211 -18 -15 -33 -73
-43 -160 -4 -34 -10 -64 -14 -67 -4 -2 -10 37 -14 88 -11 138 -12 142 -25 175
-12 28 -11 34 8 61 12 16 21 33 21 39 0 5 7 15 15 22 10 8 15 9 15 2 0 -6 7
-9 15 -6 17 7 45 -12 45 -31 0 -18 -53 -84 -67 -85 -15 0 -18 -20 -4 -20 12 0
91 90 91 103 0 6 -11 23 -25 37 l-26 27 21 56 c31 82 40 80 33 -8 -4 -53 -2
-75 6 -75 7 0 11 20 11 54 0 50 3 58 35 88 44 41 56 94 28 124 -10 11 -15 15
-12 9 4 -5 6 -29 5 -52 -2 -30 -9 -48 -26 -63 -29 -25 -36 -19 -21 17 6 15 11
39 10 53 0 14 4 54 10 90 13 77 13 99 3 85 -9 -13 -72 -48 -72 -40 0 3 11 24
26 46 59 95 64 106 48 120 -10 8 -13 21 -9 36 5 21 4 22 -14 11 -11 -7 -22
-22 -26 -35 -3 -13 -10 -23 -15 -23 -16 0 -11 40 5 46 8 4 15 12 15 19 0 7 20
31 45 53 25 22 42 43 37 46 -6 3 -24 -8 -41 -26 -35 -35 -44 -18 -13 23 37 49
73 121 68 135 -9 22 -26 16 -24 -8 1 -13 -10 -41 -23 -63 -14 -22 -36 -62 -48
-88 -27 -56 -41 -51 -50 14 -3 24 -12 44 -20 47 -10 3 -11 -2 -6 -18 4 -12 9
-34 11 -49 2 -14 6 -42 9 -61 l6 -35 -26 29 c-15 16 -24 35 -20 44 3 8 -4 25
-16 39 -13 12 -18 23 -12 23 6 0 13 -7 17 -15 3 -8 11 -15 18 -15 7 0 -2 15
-20 33 -23 23 -35 28 -40 20 -6 -9 -17 -4 -41 17 -18 17 -38 30 -46 30 -8 0
-26 11 -41 25 -15 14 -31 25 -35 25 -17 0 -8 -28 14 -43 19 -14 19 -16 4 -16
-9 -1 -26 4 -36 11 -18 11 -18 13 -2 44 9 20 33 43 58 56 43 23 65 20 43 -7
-16 -20 -3 -20 17 0 18 19 10 45 -14 45 -17 0 -36 -10 -98 -55 -20 -14 -30
-16 -33 -7 -2 6 -9 12 -17 12 -7 0 -18 7 -25 15 -7 8 -24 15 -39 14 -22 0 -18
-4 27 -27 28 -14 52 -33 52 -40 0 -10 -4 -11 -12 -5 -7 6 -25 13 -40 17 -14 3
-34 8 -45 12 -10 3 2 -6 27 -20 41 -23 43 -25 18 -26 -29 0 -98 29 -98 42 0 4
7 5 15 2 8 -4 15 -2 15 4 0 6 -6 12 -12 15 -18 6 36 62 74 78 24 10 31 10 38
0 5 -8 10 -9 14 -3 3 5 -1 15 -8 21 -11 10 -23 8 -53 -8 -49 -26 -73 -46 -73
-59 0 -15 -32 -24 -44 -12 -13 13 -36 13 -36 0 0 -5 9 -10 19 -10 21 0 33 -21
22 -39 -8 -13 -63 2 -59 16 4 22 -23 63 -43 63 -12 0 -19 5 -17 13 6 15 48 22
48 8 0 -16 29 -13 47 4 14 14 13 15 -11 9 -15 -3 -32 -1 -40 5 -8 7 -20 10
-27 9 -7 -2 -15 5 -17 15 -5 24 72 101 93 93 8 -3 15 -1 15 4 0 16 -33 11 -63
-9 -40 -26 -58 -55 -60 -98 -2 -20 -9 -39 -16 -41 -11 -4 -13 4 -8 32 5 33 4
35 -13 26 -25 -13 -35 -31 -23 -39 12 -8 25 -41 15 -41 -4 0 -14 5 -22 10 -11
7 -11 10 -2 10 7 0 10 5 7 10 -4 6 -15 8 -26 5 -22 -7 -23 -2 -9 26 6 10 18
19 28 19 13 0 14 2 3 9 -8 5 -10 14 -6 21 6 10 1 11 -20 6 -21 -5 -26 -4 -22
7 4 10 -1 13 -19 9 -14 -2 -24 0 -24 7 0 18 -20 12 -21 -6 -1 -10 -6 -3 -11
15 -12 36 -19 38 -53 16 -23 -15 -24 -15 -23 16 1 17 -3 35 -9 41 -7 7 -9 -8
-7 -45 2 -39 -1 -56 -11 -60 -10 -3 -16 8 -23 41 -12 54 -1 87 52 156 32 42
36 57 14 57 -4 0 -8 -5 -8 -11 0 -6 -11 -25 -23 -42 -26 -36 -57 -112 -57
-142 0 -14 -7 -20 -24 -21 -20 -2 -26 5 -36 45 -7 25 -17 50 -21 56 -5 5 -9
27 -9 48 0 31 -3 38 -15 33 -19 -7 -19 13 0 38 17 23 20 46 5 46 -5 0 -10 -8
-10 -18z m-1555 -136 c53 -24 115 -71 115 -87 0 -5 -24 -6 -55 -3 -38 5 -55 3
-55 -5 0 -6 17 -12 38 -12 54 -2 78 -5 89 -12 12 -8 38 -85 31 -92 -5 -5 -34
6 -105 38 -13 6 -26 7 -30 4 -6 -6 98 -57 116 -57 5 0 11 -6 14 -13 6 -15 -7
-95 -17 -104 -4 -4 -40 26 -81 67 -41 41 -77 72 -80 69 -3 -3 29 -38 70 -78
41 -39 75 -78 75 -86 0 -7 -14 -25 -31 -40 l-32 -26 -16 23 c-23 32 -56 86
-82 136 -12 23 -26 42 -31 42 -11 0 20 -59 85 -157 15 -23 27 -46 27 -51 0 -9
-52 -34 -74 -36 -8 -1 -31 66 -72 204 -7 25 -13 35 -13 24 -1 -12 11 -62 25
-110 15 -49 29 -97 31 -106 5 -15 -2 -18 -44 -18 l-50 0 -7 85 c-3 47 -3 97 0
110 4 15 2 25 -5 25 -7 0 -11 -33 -11 -100 0 -105 -5 -115 -44 -87 -16 12 -16
20 -7 77 6 36 14 76 17 88 3 17 1 23 -8 20 -8 -3 -17 -35 -23 -79 -5 -41 -14
-74 -20 -73 -5 0 -25 30 -44 67 -61 121 -42 212 66 311 31 28 63 54 72 58 36
15 117 8 166 -16z m1492 -118 c-3 -8 -6 -5 -6 6 -1 11 2 17 5 13 3 -3 4 -12 1
-19z m290 -22 c-19 -19 -27 -20 -27 -3 0 20 22 39 33 28 6 -6 4 -16 -6 -25z
m-1475 -3 c5 -2 8 -25 7 -51 -1 -26 1 -57 5 -69 7 -23 -7 -32 -19 -13 -4 6
-10 8 -15 5 -12 -7 -20 19 -10 35 6 10 9 8 13 -6 2 -10 5 4 5 31 l1 50 -22
-45 c-12 -25 -22 -46 -23 -48 -1 -2 -18 4 -38 12 -30 13 -36 20 -36 46 0 17
-5 41 -11 52 -11 20 -10 21 62 14 41 -4 77 -10 81 -13z m1216 -32 c-1 -27 -6
-47 -10 -45 -12 7 -10 94 2 94 6 0 9 -22 8 -49z m-1042 13 c-5 -13 -3 -14 6
-7 7 5 23 10 34 11 17 0 21 -5 20 -22 0 -13 -8 -23 -18 -23 -11 -1 -15 3 -11
13 7 20 -7 18 -23 -3 -7 -10 -14 -13 -14 -7 0 7 -6 14 -14 17 -10 4 -12 0 -9
-14 3 -10 1 -19 -5 -19 -5 0 -12 9 -15 20 -3 11 -10 20 -16 20 -10 0 18 -62
32 -68 4 -2 7 -13 7 -24 0 -18 -4 -15 -24 13 -14 19 -33 49 -42 68 -10 19 -20
29 -22 22 -2 -7 8 -30 23 -51 15 -21 25 -45 23 -52 -4 -10 -88 101 -88 116 0
4 36 6 81 6 71 0 80 -2 75 -16z m1137 -56 c19 -40 37 -83 41 -95 12 -37 61
-64 143 -78 43 -7 81 -12 84 -9 4 2 87 -9 185 -26 97 -16 189 -30 204 -30 14
0 36 -9 49 -21 17 -16 25 -18 36 -9 14 12 62 -4 98 -33 42 -34 48 -137 17
-295 -21 -106 -84 -291 -104 -304 -26 -17 -32 -7 -28 47 6 89 -20 126 -118
163 -63 24 -78 25 -84 5 -3 -10 -16 -29 -29 -43 -12 -14 -43 -52 -67 -85 -25
-33 -49 -64 -53 -70 -4 -5 -51 -66 -103 -135 -53 -69 -108 -138 -124 -155 -47
-51 -183 -229 -184 -242 -1 -7 22 -29 50 -50 56 -41 340 -270 389 -314 17 -15
84 -74 150 -131 66 -57 132 -120 148 -139 98 -121 128 -166 171 -248 45 -86
48 -97 49 -174 1 -65 -3 -95 -21 -142 -32 -81 -52 -125 -73 -155 -9 -14 -29
-47 -44 -74 -35 -63 -119 -151 -159 -167 -17 -7 -58 -33 -90 -58 -64 -49 -64
-49 -26 49 27 70 36 178 21 252 -23 109 -117 221 -421 504 -47 43 -105 95
-130 114 -24 19 -51 42 -60 50 -8 8 -62 52 -120 98 -58 46 -116 93 -130 105
-14 12 -61 50 -105 85 -44 34 -105 85 -135 112 -30 27 -73 62 -95 79 -22 16
-62 48 -90 70 -27 23 -73 59 -101 81 l-51 40 -75 -75 c-91 -91 -146 -167 -184
-255 -24 -54 -28 -79 -29 -150 0 -82 1 -87 38 -141 20 -31 48 -67 60 -80 12
-13 36 -42 51 -64 16 -22 59 -68 95 -103 192 -182 224 -238 224 -397 1 -114
-30 -218 -94 -312 -90 -134 -127 -152 -304 -143 -60 3 -144 2 -185 -2 -72 -7
-225 -2 -242 8 -5 3 -6 9 -3 14 5 8 128 70 139 70 3 0 39 20 80 45 80 49 126
95 126 126 0 61 -97 180 -217 266 -35 24 -73 59 -85 76 -12 18 -28 38 -35 46
-93 95 -94 372 -2 576 76 170 241 364 389 457 14 8 38 26 54 39 113 95 124
109 86 109 -27 0 -213 166 -285 255 -16 20 -35 42 -40 49 -19 21 -65 136 -80
202 -19 81 -19 114 -1 178 8 28 19 67 23 86 l9 35 59 -89 c33 -49 65 -97 70
-105 6 -9 13 -18 16 -21 3 -3 25 -35 48 -72 24 -38 47 -68 52 -68 11 0 10 3
-43 83 -21 32 -38 62 -38 66 0 5 -7 15 -16 22 -9 7 -34 40 -57 74 -22 33 -43
62 -46 65 -4 3 -14 17 -24 32 -16 25 -16 31 -1 75 18 53 52 123 59 123 3 0 32
-28 66 -62 33 -35 59 -58 57 -51 -2 6 -27 36 -55 66 -35 36 -53 64 -53 80 0
21 24 60 71 115 20 24 44 9 51 -33 3 -22 12 -71 18 -110 15 -83 32 -126 75
-180 17 -22 36 -47 41 -57 15 -26 74 -86 180 -183 54 -49 113 -104 129 -120
17 -17 78 -69 135 -115 58 -47 107 -87 110 -90 9 -10 135 -115 182 -153 49
-39 52 -42 106 -91 37 -34 41 -32 105 49 21 28 60 73 86 101 25 29 64 78 86
109 22 31 59 78 82 103 24 26 51 56 61 67 10 11 26 33 36 48 19 31 49 68 82
103 11 12 27 36 34 54 17 40 9 45 -74 54 -104 11 -228 46 -295 83 -97 54 -118
116 -93 278 6 39 18 117 26 175 18 116 26 160 31 160 2 0 19 -33 38 -72z
m-1023 53 c0 -12 -26 -32 -33 -25 -9 10 4 34 19 34 8 0 14 -4 14 -9z m1150 0
c0 -5 -7 -11 -14 -14 -10 -4 -13 -1 -9 9 6 15 23 19 23 5z m110 -5 c0 -2 -8
-10 -17 -17 -16 -13 -17 -12 -4 4 13 16 21 21 21 13z m50 -6 c0 -5 -4 -10 -10
-10 -5 0 -10 5 -10 10 0 6 5 10 10 10 6 0 10 -4 10 -10z m-35 -31 c-4 -5 -13
-9 -22 -9 -13 0 -13 3 -3 15 13 15 35 11 25 -6z m-81 -5 c3 -8 2 -12 -4 -9 -6
3 -10 10 -10 16 0 14 7 11 14 -7z m-1284 -14 c0 -5 -4 -10 -10 -10 -5 0 -10 5
-10 10 0 6 5 10 10 10 6 0 10 -4 10 -10z m-131 -34 c26 -41 26 -46 1 -46 -11
0 -20 4 -20 9 0 5 -3 23 -6 40 -8 40 -1 39 25 -3z m1511 8 c0 -16 -16 -19 -25
-4 -8 13 4 32 16 25 5 -4 9 -13 9 -21z m-1668 -46 l1 -43 4 38 c2 20 8 37 13
37 16 0 17 -25 2 -75 -7 -27 -13 -60 -13 -73 1 -20 -1 -21 -19 -10 -11 7 -20
21 -20 30 0 10 -6 17 -12 16 -14 -3 -14 9 -2 80 5 32 11 42 25 42 15 0 19 -8
21 -42z m318 17 c0 -8 -4 -15 -10 -15 -5 0 -10 7 -10 15 0 8 5 15 10 15 6 0
10 -7 10 -15z m69 -65 c0 -11 -3 -10 -14 4 -8 11 -15 31 -14 45 1 26 1 26 14
-4 8 -16 14 -37 14 -45z m1420 49 c12 -12 20 -24 17 -27 -9 -9 -56 20 -56 35
0 19 13 16 39 -8z m-1732 -10 c4 -15 8 -17 14 -8 4 8 10 11 13 8 7 -7 -34 -89
-44 -89 -5 0 -8 25 -7 55 1 55 14 73 24 34z m143 11 c0 -5 -2 -10 -4 -10 -3 0
-8 5 -11 10 -3 6 -1 10 4 10 6 0 11 -4 11 -10z m1528 -7 c5 -18 -23 -16 -39 3
-11 14 -10 15 11 12 13 -1 25 -9 28 -15z m-1380 -91 c-5 -27 -23 -14 -20 14 2
14 -4 34 -13 44 -9 10 -14 24 -10 31 10 14 48 -65 43 -89z m842 84 c0 -3 -4
-8 -10 -11 -5 -3 -10 -1 -10 4 0 6 5 11 10 11 6 0 10 -2 10 -4z m65 -16 c3 -5
1 -10 -4 -10 -6 0 -11 5 -11 10 0 6 2 10 4 10 3 0 8 -4 11 -10z m-1125 -10 c0
-5 -4 -10 -10 -10 -5 0 -10 5 -10 10 0 6 5 10 10 10 6 0 10 -4 10 -10z m150
-21 c0 -5 -4 -9 -10 -9 -5 0 -10 7 -10 16 0 8 5 12 10 9 6 -3 10 -10 10 -16z
m882 -20 l-9 -24 -8 24 c-5 16 -3 26 6 32 18 11 22 -1 11 -32z m52 16 c-4 -8
-8 -15 -10 -15 -2 0 -4 7 -4 15 0 8 4 15 10 15 5 0 7 -7 4 -15z m406 5 c0 -5
-2 -10 -4 -10 -3 0 -8 5 -11 10 -3 6 -1 10 4 10 6 0 11 -4 11 -10z m310 -16
c0 -2 -7 -4 -15 -4 -8 0 -15 4 -15 10 0 5 7 7 15 4 8 -4 15 -8 15 -10z m-1906
-49 c-4 -8 -10 -15 -15 -15 -11 0 -11 16 -2 49 6 24 6 24 14 3 5 -12 6 -29 3
-37z m-94 20 c15 -18 5 -66 -21 -100 -27 -33 -32 -32 -52 10 l-17 36 33 34
c37 39 40 40 57 20z m150 0 c-7 -9 -15 -13 -19 -10 -3 3 1 10 9 15 21 14 24
12 10 -5z m187 -17 c-3 -8 -6 -5 -6 6 -1 11 2 17 5 13 3 -3 4 -12 1 -19z
m1901 -15 c12 -3 22 -9 22 -14 0 -13 -13 -11 -48 7 -33 16 -45 32 -14 19 9 -4
27 -10 40 -12z m-2182 -17 c3 -8 0 -25 -8 -38 -7 -13 -18 -43 -23 -68 -11 -45
-11 -45 -10 25 1 39 3 76 4 83 2 17 30 15 37 -2z m351 -12 c-9 -9 -28 6 -21
18 4 6 10 6 17 -1 6 -6 8 -13 4 -17z m776 -5 c-6 -6 -9 -18 -6 -25 3 -8 1 -14
-5 -14 -16 0 -20 23 -9 48 7 15 14 19 21 12 7 -7 6 -14 -1 -21z m104 -11 c-3
-8 -6 -5 -6 6 -1 11 2 17 5 13 3 -3 4 -12 1 -19z m-1364 -29 c9 -17 17 -36 17
-43 0 -7 12 -26 26 -41 23 -25 24 -30 13 -59 -16 -40 -29 -57 -40 -51 -4 3
-11 -11 -15 -32 -7 -42 -33 -93 -47 -93 -5 0 -6 8 -2 18 4 9 7 30 6 45 -1 16
5 42 13 59 16 32 7 85 -9 57 -5 -8 -10 -21 -10 -29 -1 -8 -3 -31 -4 -50 l-2
-35 -13 45 c-17 57 -46 184 -46 199 0 12 54 39 80 40 8 1 23 -13 33 -30z
m2434 16 c8 -9 13 -19 9 -22 -7 -7 -36 16 -36 28 0 13 10 11 27 -6z m-1928 -2
c0 -5 -4 -17 -9 -28 -8 -18 -9 -17 -9 8 -1 15 4 27 9 27 6 0 10 -3 9 -7z
m-346 -22 c-3 -11 -11 -22 -18 -24 -10 -4 -10 0 -1 19 13 29 26 32 19 5z m-83
-8 c0 -23 -17 -49 -26 -41 -9 10 4 58 16 58 6 0 10 -8 10 -17z m1212 -15 c-7
-7 -12 -8 -12 -2 0 6 3 14 7 17 3 4 9 5 12 2 2 -3 -1 -11 -7 -17z m95 -20 c-3
-8 -6 -5 -6 6 -1 11 2 17 5 13 3 -3 4 -12 1 -19z m-827 8 c0 -3 -4 -8 -10 -11
-5 -3 -10 -1 -10 4 0 6 5 11 10 11 6 0 10 -2 10 -4z m1916 -23 c-7 -7 -26 7
-26 19 0 6 6 6 15 -2 9 -7 13 -15 11 -17z m-1866 -13 c0 -5 -2 -10 -4 -10 -3
0 -8 5 -11 10 -3 6 -1 10 4 10 6 0 11 -4 11 -10z m82 -42 c-10 -22 -11 -21
-11 12 -1 26 2 31 11 22 8 -8 8 -17 0 -34z m642 16 c3 -8 2 -12 -4 -9 -6 3
-10 10 -10 16 0 14 7 11 14 -7z m-52 -26 c-9 -9 -12 -7 -12 12 0 19 3 21 12
12 9 -9 9 -15 0 -24z m-682 7 c0 -8 -4 -15 -9 -15 -13 0 -22 16 -14 24 11 11
23 6 23 -9z m2015 -35 c-24 -27 -40 -11 -24 24 11 24 14 25 28 12 13 -14 13
-18 -4 -36z m-1951 6 c-6 -25 -24 -37 -24 -15 0 15 21 52 26 46 3 -3 2 -16 -2
-31z m46 -21 c0 -16 -6 -25 -15 -25 -15 0 -21 31 -8 43 13 14 23 6 23 -18z
m-140 -1 c0 -8 -4 -12 -10 -9 -5 3 -10 10 -10 16 0 5 5 9 10 9 6 0 10 -7 10
-16z m2020 -25 c0 -5 -4 -9 -10 -9 -5 0 -10 7 -10 16 0 8 5 12 10 9 6 -3 10
-10 10 -16z m-30 -18 c0 -20 -10 -39 -30 -58 -16 -15 -30 -34 -30 -40 0 -7 -4
-13 -10 -13 -19 0 -10 30 15 52 14 12 25 25 25 29 0 13 19 59 25 59 3 0 5 -13
5 -29z m-60 -8 c0 -20 -3 -24 -11 -16 -7 7 -9 19 -6 27 10 24 17 19 17 -11z
m-2462 -23 c-10 -30 -28 -50 -28 -31 0 17 23 61 31 61 4 0 3 -14 -3 -30z m587
20 c3 -5 2 -10 -4 -10 -5 0 -13 5 -16 10 -3 6 -2 10 4 10 5 0 13 -4 16 -10z
m165 -7 c0 -5 -6 -16 -13 -25 -12 -15 -14 -15 -25 2 -9 15 -8 19 6 23 28 7 32
7 32 0z m1826 -97 c-7 -35 -81 -124 -93 -112 -5 4 0 13 10 20 9 7 17 18 17 25
0 6 9 16 20 23 11 7 20 19 20 27 0 11 -5 10 -20 -4 -37 -34 -23 2 21 54 27 32
35 21 25 -33z m-1906 29 c0 -8 -4 -15 -10 -15 -5 0 -10 7 -10 15 0 8 5 15 10
15 6 0 10 -7 10 -15z m-709 -19 c-6 -7 -14 -23 -19 -36 -5 -13 -11 -19 -15
-14 -8 14 23 75 35 68 5 -4 5 -11 -1 -18z m2549 16 c0 -5 -7 -17 -15 -28 -15
-19 -20 -8 -9 20 6 17 24 22 24 8z m-1023 -44 c-3 -8 -6 -5 -6 6 -1 11 2 17 5
13 3 -3 4 -12 1 -19z m-140 -13 c9 -25 -4 -29 -17 -6 -7 15 -7 21 0 21 6 0 13
-7 17 -15z m1113 1 c0 -2 -7 -9 -15 -16 -13 -11 -14 -10 -9 4 5 14 24 23 24
12z m-1685 -16 c3 -5 1 -10 -4 -10 -6 0 -11 5 -11 10 0 6 2 10 4 10 3 0 8 -4
11 -10z m-860 -30 c-4 -12 -9 -19 -12 -17 -3 3 -2 15 2 27 4 12 9 19 12 17 3
-3 2 -15 -2 -27z m66 -23 c-8 -8 -11 -4 -11 14 0 33 14 47 18 19 2 -12 -1 -27
-7 -33z m987 28 c0 -21 -3 -23 -14 -14 -11 9 -11 15 -3 25 15 19 17 18 17 -11z
m362 3 c0 -15 -54 -127 -61 -127 -4 -1 -9 11 -12 25 -5 26 14 75 41 106 15 18
32 16 32 -4z m45 12 c3 -5 1 -10 -4 -10 -6 0 -11 5 -11 10 0 6 2 10 4 10 3 0
8 -4 11 -10z m1117 -12 c-7 -7 -12 -8 -12 -2 0 6 3 14 7 17 3 4 9 5 12 2 2 -3
-1 -11 -7 -17z m-1597 -18 c3 -5 2 -10 -4 -10 -5 0 -13 5 -16 10 -3 6 -2 10 4
10 5 0 13 -4 16 -10z m521 -35 c-2 -20 0 -37 4 -40 24 -15 -27 -115 -59 -115
-7 0 -11 -8 -10 -17 3 -34 -3 -48 -10 -23 -5 15 -3 39 6 59 17 45 22 49 33 31
11 -17 12 -9 13 63 0 45 -6 52 -30 38 -16 -9 -16 -10 -1 -11 18 0 14 -34 -7
-60 -7 -8 -15 -24 -17 -35 -3 -13 -8 -2 -15 30 -15 64 4 109 41 99 13 -3 27
-1 30 5 14 22 24 10 22 -24z m34 31 c0 -3 -4 -8 -10 -11 -5 -3 -10 -1 -10 4 0
6 5 11 10 11 6 0 10 -2 10 -4z m1100 -21 c-17 -46 -39 -83 -52 -87 -6 -2 -13
-15 -15 -29 -2 -13 -4 -33 -6 -44 -1 -11 -10 -20 -20 -20 -11 0 -26 -18 -42
-50 -34 -69 -31 -35 4 52 40 97 49 113 66 113 7 0 17 10 20 23 10 31 34 67 45
67 6 0 6 -9 0 -25z m-1740 -5 c0 -5 -2 -10 -4 -10 -3 0 -8 5 -11 10 -3 6 -1
10 4 10 6 0 11 -4 11 -10z m140 -18 c0 -12 -8 -18 -25 -20 -17 -1 -25 3 -25
14 0 10 6 14 15 11 8 -4 17 -2 20 3 9 15 15 12 15 -8z m-157 -22 l18 -30 -28
12 c-15 7 -29 13 -31 14 -5 3 10 34 17 34 4 0 15 -14 24 -30z m952 20 c3 -5 1
-10 -4 -10 -6 0 -11 5 -11 10 0 6 2 10 4 10 3 0 8 -4 11 -10z m725 -10 c0 -11
-4 -20 -9 -20 -6 0 -9 9 -8 20 1 11 5 20 9 20 4 0 8 -9 8 -20z m-1612 -25 c-3
-3 -9 2 -12 12 -6 14 -5 15 5 6 7 -7 10 -15 7 -18z m196 16 c10 -15 -5 -41
-23 -41 -26 0 -44 17 -38 34 7 17 52 22 61 7z m108 -25 c3 -15 0 -27 -8 -30
-10 -4 -14 3 -14 24 0 36 16 40 22 6z m378 20 c0 -3 -4 -8 -10 -11 -5 -3 -10
-1 -10 4 0 6 5 11 10 11 6 0 10 -2 10 -4z m897 -18 c-3 -8 -6 -5 -6 6 -1 11 2
17 5 13 3 -3 4 -12 1 -19z m-1467 2 c0 -5 -2 -10 -4 -10 -3 0 -8 5 -11 10 -3
6 -1 10 4 10 6 0 11 -4 11 -10z m150 1 c0 -6 -4 -13 -10 -16 -5 -3 -10 1 -10
9 0 9 5 16 10 16 6 0 10 -4 10 -9z m370 -6 c0 -8 -7 -15 -15 -15 -8 0 -15 7
-15 15 0 8 7 15 15 15 8 0 15 -7 15 -15z m-177 -37 c6 -46 0 -60 -24 -47 -22
11 -24 28 -8 63 15 32 25 26 32 -16z m-1359 10 c-4 -13 -13 -32 -20 -43 -19
-26 -18 -39 2 -31 15 6 15 4 3 -10 -16 -20 -22 -54 -9 -54 6 0 10 -7 10 -15 0
-17 -12 -19 -26 -5 -8 8 -15 6 -24 -5 -7 -8 -17 -15 -23 -15 -5 0 -3 8 6 18
10 10 17 26 17 34 0 9 6 18 14 21 9 4 13 17 11 41 -2 20 1 38 6 41 5 4 9 15 9
26 0 11 7 19 16 19 11 0 14 -6 8 -22z m996 11 c0 -6 7 -9 15 -6 8 4 17 2 20
-3 3 -4 23 -11 45 -15 26 -4 40 -12 40 -22 0 -11 -7 -14 -25 -11 -17 4 -25 1
-25 -8 0 -8 10 -14 23 -14 29 0 53 -15 38 -24 -15 -10 -63 15 -76 39 -21 41
-27 47 -37 37 -7 -7 -18 -7 -34 0 -29 14 -32 38 -4 38 11 0 20 -5 20 -11z
m300 -42 c0 -24 -3 -28 -10 -17 -13 20 -13 63 0 55 6 -3 10 -21 10 -38z m256
16 c-10 -10 -19 5 -10 18 6 11 8 11 12 0 2 -7 1 -15 -2 -18z m848 3 c-3 -9
-10 -16 -15 -16 -6 0 -5 9 1 21 13 24 24 20 14 -5z m-922 -57 c-16 -51 -40
-68 -34 -24 2 19 44 87 49 81 2 -1 -5 -27 -15 -57z m974 42 c8 7 14 7 14 1 0
-5 -7 -15 -15 -22 -11 -9 -15 -9 -15 -1 0 7 -4 9 -10 6 -12 -7 -12 -3 -3 22 7
17 8 17 11 0 3 -14 7 -16 18 -6z m-1186 -1 c0 -5 -4 -10 -10 -10 -5 0 -10 5
-10 10 0 6 5 10 10 10 6 0 10 -4 10 -10z m-1250 -21 c0 -11 -4 -17 -10 -14 -5
3 -10 13 -10 21 0 8 5 14 10 14 6 0 10 -9 10 -21z m1513 1 c-3 -11 -9 -20 -14
-20 -10 0 -12 24 -2 33 13 13 21 7 16 -13z m-502 -1 c11 -5 17 -14 14 -20 -7
-11 -45 7 -45 21 0 13 7 13 31 -1z m143 -10 c-6 -11 -24 -2 -24 11 0 5 7 7 15
4 8 -4 12 -10 9 -15z m1210 -16 c-24 -32 -47 -43 -37 -17 5 13 3 16 -10 11
-11 -4 -14 -2 -10 9 6 17 20 18 26 2 3 -9 11 -5 22 10 9 13 20 21 23 17 3 -3
-3 -17 -14 -32z m-1159 17 c3 -5 -1 -10 -9 -10 -9 0 -16 5 -16 10 0 6 4 10 9
10 6 0 13 -4 16 -10z m1006 -17 c-12 -20 -14 -14 -5 12 4 9 9 14 11 11 3 -2 0
-13 -6 -23z m-964 11 c-3 -3 -12 -4 -19 -1 -8 3 -5 6 6 6 11 1 17 -2 13 -5z
m-1241 -58 c-10 -39 -23 -31 -18 10 3 24 8 32 14 26 6 -6 8 -22 4 -36z m1339
34 c3 -6 0 -17 -8 -25 -13 -12 -15 -12 -20 5 -7 27 14 43 28 20z m1044 -20
c-6 -16 -9 -35 -6 -42 2 -7 8 -1 12 15 4 15 11 27 16 27 12 0 11 -5 -7 -48
-13 -29 -17 -69 -16 -189 0 -90 -4 -153 -9 -153 -12 0 -14 8 -27 106 -6 44
-18 96 -27 116 -16 33 -16 37 4 81 12 25 21 50 21 55 0 9 38 62 45 62 2 0 -1
-13 -6 -30z m-832 -5 c-4 -8 -11 -15 -17 -15 -7 0 -7 6 0 21 13 23 26 19 17
-6z m-503 -1 c5 -14 4 -15 -9 -4 -17 14 -19 20 -6 20 5 0 12 -7 15 -16z m161
6 c3 -5 -3 -10 -15 -10 -12 0 -18 5 -15 10 3 6 10 10 15 10 5 0 12 -4 15 -10z
m49 -27 c9 -57 7 -85 -5 -78 -6 4 -8 14 -5 22 4 9 2 21 -2 27 -18 22 -23 66
-8 66 8 0 16 -15 20 -37z m883 15 c-3 -8 -6 -5 -6 6 -1 11 2 17 5 13 3 -3 4
-12 1 -19z m103 18 c0 -3 -4 -8 -10 -11 -5 -3 -10 -1 -10 4 0 6 5 11 10 11 6
0 10 -2 10 -4z m-1137 -22 c9 -4 17 -10 17 -14 0 -13 -38 0 -52 18 -11 13 -11
14 2 9 8 -4 23 -10 33 -13z m187 -10 c0 -8 -4 -12 -10 -9 -5 3 -10 10 -10 16
0 5 5 9 10 9 6 0 10 -7 10 -16z m960 -14 c-7 -5 -11 -19 -8 -34 3 -15 1 -29
-4 -32 -11 -7 -14 -5 -22 21 -6 22 35 86 43 64 2 -6 -2 -15 -9 -19z m-1103 -2
c-3 -8 -6 -5 -6 6 -1 11 2 17 5 13 3 -3 4 -12 1 -19z m203 12 c0 -5 -4 -10
-10 -10 -5 0 -10 5 -10 10 0 6 5 10 10 10 6 0 10 -4 10 -10z m52 -22 c-9 -9
-12 -7 -12 12 0 19 3 21 12 12 9 -9 9 -15 0 -24z m781 17 c4 -8 2 -17 -3 -20
-6 -4 -10 3 -10 14 0 25 6 27 13 6z m-1158 -4 c3 -5 1 -12 -5 -16 -5 -3 -10 1
-10 9 0 18 6 21 15 7z m179 -12 c-3 -5 -10 -7 -15 -3 -5 3 -7 10 -3 15 3 5 10
7 15 3 5 -3 7 -10 3 -15z m671 11 c3 -5 1 -10 -4 -10 -6 0 -11 5 -11 10 0 6 2
10 4 10 3 0 8 -4 11 -10z m420 -62 c-14 -43 -17 -83 -16 -210 1 -87 -1 -158
-6 -158 -13 0 -64 36 -58 42 3 3 12 31 21 63 8 33 20 65 26 72 8 10 6 13 -6
13 -9 0 -16 -5 -16 -11 0 -5 -4 -7 -10 -4 -5 3 -10 1 -10 -4 0 -6 4 -11 10
-11 5 0 2 -19 -6 -42 -9 -24 -17 -47 -19 -53 -14 -46 -18 -55 -27 -55 -5 0 -8
6 -7 13 3 26 -1 47 -10 47 -5 0 -11 -12 -13 -27 -3 -26 -6 -28 -43 -27 -94 3
-97 4 -92 19 4 8 2 17 -3 20 -5 3 -10 -5 -12 -17 -2 -13 -9 -23 -15 -22 -7 1
-29 2 -48 3 -19 0 -35 5 -35 11 0 5 7 7 15 4 9 -4 15 0 15 9 0 19 12 23 83 32
33 4 54 11 51 17 -3 5 -16 7 -29 4 -19 -5 -22 -2 -22 18 0 19 7 25 48 35 27 7
47 17 44 21 -3 5 -24 2 -47 -6 -50 -18 -48 -18 -48 5 0 13 13 24 40 35 41 16
55 32 20 23 -11 -3 -20 -1 -20 4 0 5 9 9 20 9 13 0 22 9 26 25 6 23 30 45 49
45 8 0 2 -66 -9 -95 -7 -18 -6 -18 4 -2 6 9 15 17 20 17 17 0 51 40 44 52 -5
7 -2 9 8 5 19 -7 38 11 31 29 -2 7 6 28 20 46 13 18 27 42 31 52 3 10 9 16 13
13 3 -4 -2 -30 -12 -59z m-2292 32 c-5 -19 -23 -39 -23 -25 0 9 20 45 24 45 2
0 2 -9 -1 -20z m1297 10 c0 -5 -4 -10 -10 -10 -5 0 -10 5 -10 10 0 6 5 10 10
10 6 0 10 -4 10 -10z m-1362 -24 c2 -10 -1 -23 -7 -29 -16 -16 -34 6 -26 33 8
24 28 22 33 -4z m117 14 c3 -5 1 -10 -4 -10 -6 0 -11 5 -11 10 0 6 2 10 4 10
3 0 8 -4 11 -10z m1295 -5 c0 -8 -7 -15 -15 -15 -8 0 -15 7 -15 15 0 8 7 15
15 15 8 0 15 -7 15 -15z m585 -22 c-25 -18 -31 -9 -8 14 10 10 20 15 22 9 2
-5 -4 -15 -14 -23z m-795 5 c0 -13 -23 -5 -28 10 -2 7 2 10 12 6 9 -3 16 -11
16 -16z m317 0 c-3 -8 -6 -5 -6 6 -1 11 2 17 5 13 3 -3 4 -12 1 -19z m666 1
c3 -12 0 -22 -9 -26 -20 -7 -24 -1 -17 25 7 28 19 28 26 1z m-903 -10 c0 -6
-4 -7 -10 -4 -5 3 -10 11 -10 16 0 6 5 7 10 4 6 -3 10 -11 10 -16z m850 6 c0
-8 -7 -15 -15 -15 -8 0 -15 5 -15 11 0 5 5 7 10 4 6 -3 10 -1 10 4 0 6 2 11 5
11 3 0 5 -7 5 -15z m139 -45 c0 -8 -8 -26 -19 -40 l-20 -25 0 28 c0 16 4 26 9
22 15 -9 24 14 12 29 -6 7 -8 22 -4 32 6 17 8 16 14 -6 4 -14 7 -32 8 -40z
m-909 34 c0 -8 -4 -12 -10 -9 -5 3 -10 10 -10 16 0 5 5 9 10 9 6 0 10 -7 10
-16z m710 6 c0 -5 -5 -10 -11 -10 -5 0 -7 5 -4 10 3 6 8 10 11 10 2 0 4 -4 4
-10z m-604 -27 c-10 -10 -19 5 -10 18 6 11 8 11 12 0 2 -7 1 -15 -2 -18z
m-1391 -12 c-9 -16 -25 -3 -18 15 4 10 9 12 15 6 6 -6 7 -15 3 -21z m1345 25
c0 -3 -4 -8 -10 -11 -5 -3 -10 -1 -10 4 0 6 5 11 10 11 6 0 10 -2 10 -4z m550
-20 c0 -8 -4 -18 -10 -21 -5 -3 -10 3 -10 14 0 12 5 21 10 21 6 0 10 -6 10
-14z m516 -173 c7 -94 20 -126 42 -100 8 10 42 198 42 234 0 2 5 3 11 3 10 0
7 -107 -6 -205 -3 -22 -1 -47 4 -55 17 -25 41 0 69 74 15 38 33 71 41 74 10 3
12 0 7 -14 -21 -54 -56 -212 -56 -253 0 -29 -13 -76 -35 -131 -19 -46 -35 -92
-35 -101 0 -14 -8 -17 -35 -15 -20 2 -38 -1 -41 -5 -3 -5 -23 -9 -46 -9 -30 0
-39 3 -35 14 3 8 -2 16 -14 19 -16 4 -18 11 -13 33 4 15 13 39 20 53 18 35 11
37 -19 7 -14 -14 -21 -28 -16 -31 11 -7 2 -25 -12 -25 -5 0 -9 7 -9 15 0 8 -7
15 -16 15 -22 0 -12 23 17 37 13 7 18 13 10 13 -9 0 -11 8 -6 28 11 45 21 45
64 2 43 -43 43 -53 8 -99 -6 -7 -12 -20 -13 -30 -2 -10 6 -5 21 14 13 16 22
31 20 34 -3 2 1 11 9 20 19 22 27 61 11 55 -6 -3 -17 1 -24 9 -9 11 -5 28 18
79 37 84 46 112 32 104 -6 -4 -11 -16 -11 -27 0 -10 -4 -19 -10 -19 -5 0 -14
-17 -20 -38 -7 -20 -18 -46 -26 -56 -20 -28 -48 -3 -40 36 3 15 1 28 -4 28 -6
0 -10 -4 -10 -10 0 -5 -4 -10 -9 -10 -17 0 -9 60 9 70 22 12 33 1 18 -17 -6
-7 -8 -16 -5 -19 10 -10 27 6 27 27 0 10 4 19 9 19 15 0 22 61 21 192 -3 210
21 185 36 -39z m-2376 147 c0 -11 -7 -20 -15 -20 -18 0 -19 6 -2 25 16 19 17
18 17 -5z m2020 10 c0 -5 -7 -10 -15 -10 -8 0 -15 5 -15 10 0 6 7 10 15 10 8
0 15 -4 15 -10z m-213 -32 c-3 -8 -6 -5 -6 6 -1 11 2 17 5 13 3 -3 4 -12 1
-19z m53 2 c0 -5 -5 -10 -11 -10 -5 0 -7 5 -4 10 3 6 8 10 11 10 2 0 4 -4 4
-10z m70 1 c0 -6 -4 -12 -8 -15 -5 -3 -9 1 -9 9 0 8 4 15 9 15 4 0 8 -4 8 -9z
m90 -11 c0 -12 -42 -31 -50 -23 -6 5 30 33 42 33 4 0 8 -5 8 -10z m-1990 -36
c0 -8 -4 -12 -10 -9 -5 3 -10 13 -10 21 0 8 5 12 10 9 6 -3 10 -13 10 -21z
m2243 -69 c5 -42 2 -67 -7 -85 -13 -23 -15 -18 -18 63 -2 48 -1 92 1 99 7 20
18 -15 24 -77z m-404 44 c-16 -10 -23 -4 -14 10 3 6 11 8 17 5 6 -4 5 -9 -3
-15z m101 2 c0 -5 -13 -14 -30 -20 -33 -11 -42 -32 -10 -24 11 3 20 1 20 -3
-1 -31 -73 -57 -83 -31 -4 10 3 18 16 22 22 7 22 7 -3 14 -23 7 -24 8 -5 14
11 4 36 13 55 21 19 8 36 15 38 15 1 1 2 -3 2 -8z m-1873 -59 c10 -10 11 -18
4 -25 -14 -14 -18 -9 -25 38 -3 22 -3 31 0 21 4 -11 13 -26 21 -34z m-72 -2
c0 -13 -6 -25 -12 -27 -9 -3 -13 6 -13 27 0 21 4 30 13 28 6 -3 12 -15 12 -28z
m125 -15 c0 -8 -4 -15 -10 -15 -5 0 -10 7 -10 15 0 8 5 15 10 15 6 0 10 -7 10
-15z m1700 -13 c0 -10 -6 -19 -13 -19 -7 0 -25 -3 -41 -7 -18 -4 -25 -3 -21 4
3 5 13 10 21 10 9 0 22 7 30 15 20 19 24 19 24 -3z m-1645 -2 c3 -5 1 -10 -4
-10 -6 0 -11 5 -11 10 0 6 2 10 4 10 3 0 8 -4 11 -10z m1741 -15 c-3 -20 -7
-23 -44 -30 -42 -7 -42 11 1 29 42 19 46 19 43 1z m-1906 -15 c0 -11 -4 -20
-9 -20 -5 0 -11 9 -14 20 -3 13 0 20 9 20 8 0 14 -9 14 -20z m43 -12 c8 -55
-8 -54 -19 0 -4 19 -2 32 4 32 5 0 12 -15 15 -32z m1647 22 c0 -5 -5 -10 -11
-10 -5 0 -7 5 -4 10 3 6 8 10 11 10 2 0 4 -4 4 -10z m-1540 -20 c0 -5 -2 -10
-4 -10 -3 0 -8 5 -11 10 -3 6 -1 10 4 10 6 0 11 -4 11 -10z m1667 -6 c-3 -3
-12 -4 -19 -1 -8 3 -5 6 6 6 11 1 17 -2 13 -5z m447 -23 c18 -20 10 -33 -31
-45 -27 -8 -31 11 -11 44 16 25 21 25 42 1z m-2138 -29 c1 -17 -4 -36 -10 -41
-8 -7 -12 3 -12 35 -2 51 19 57 22 6z m1494 34 c0 -3 -4 -8 -10 -11 -5 -3 -10
-1 -10 4 0 6 5 11 10 11 6 0 10 -2 10 -4z m-50 -10 c0 -3 -4 -8 -10 -11 -5 -3
-10 -1 -10 4 0 6 5 11 10 11 6 0 10 -2 10 -4z m-1390 -26 c0 -5 -7 -10 -15
-10 -8 0 -15 5 -15 10 0 6 7 10 15 10 8 0 15 -4 15 -10z m1612 -12 c-7 -7 -12
-8 -12 -2 0 14 12 26 19 19 2 -3 -1 -11 -7 -17z m-1759 -1 c3 -7 -4 -24 -15
-38 l-20 -24 6 25 c3 14 6 31 6 38 0 16 16 16 23 -1z m-64 -49 c-11 -19 -14
-20 -17 -6 -2 9 2 27 9 40 11 19 14 20 17 6 2 -9 -2 -27 -9 -40z m112 19 c-13
-13 -26 -3 -16 12 3 6 11 8 17 5 6 -4 6 -10 -1 -17z m2076 -3 c17 -17 6 -44
-18 -44 -22 0 -41 32 -33 54 6 16 30 11 51 -10z m-262 6 c3 -5 -3 -10 -15 -10
-12 0 -18 5 -15 10 3 6 10 10 15 10 5 0 12 -4 15 -10z m115 -5 c0 -19 16 -20
23 -1 7 18 47 9 47 -10 0 -21 -45 -28 -80 -13 -34 16 -40 39 -10 39 11 0 20
-7 20 -15z m-260 -16 c0 -5 -4 -9 -10 -9 -5 0 -10 7 -10 16 0 8 5 12 10 9 6
-3 10 -10 10 -16z m200 11 c0 -5 -4 -10 -9 -10 -6 0 -13 5 -16 10 -3 6 1 10 9
10 9 0 16 -4 16 -10z m-244 -16 c-3 -9 -6 -18 -6 -20 0 -2 -5 -4 -11 -4 -5 0
-7 5 -4 10 3 6 0 10 -7 10 -9 0 -9 3 2 10 22 14 33 12 26 -6z m133 -36 c1 -5
-3 -8 -9 -8 -5 0 -10 12 -9 28 0 24 1 25 9 7 5 -11 9 -23 9 -27z m61 17 c0 -8
-6 -15 -14 -15 -17 0 -28 14 -19 24 12 12 33 6 33 -9z m83 2 c20 4 27 1 27
-11 0 -19 11 -21 27 -5 21 21 32 0 17 -31 -9 -16 -13 -34 -9 -40 3 -5 1 -10
-4 -10 -6 0 -11 -7 -11 -15 0 -8 -4 -15 -10 -15 -5 0 -10 5 -10 11 0 7 -9 9
-21 6 -16 -4 -20 -1 -17 16 2 16 11 23 31 25 15 2 27 8 27 14 0 6 -11 8 -26 4
-23 -6 -26 -4 -21 13 3 14 0 21 -9 21 -8 0 -14 -4 -14 -10 0 -5 -9 -10 -19
-10 -14 0 -18 7 -17 24 1 18 5 22 16 16 8 -5 28 -6 43 -3z m223 -73 c-4 -13
-11 -24 -16 -24 -6 0 -10 -8 -10 -17 0 -10 -4 -25 -10 -33 -7 -11 -11 -9 -19
12 -9 24 5 97 25 130 11 17 36 -41 30 -68z m-2270 41 c-3 -9 -11 -13 -16 -10
-8 5 -7 11 1 21 14 18 24 11 15 -11z m44 15 c0 -5 -5 -10 -11 -10 -5 0 -7 5
-4 10 3 6 8 10 11 10 2 0 4 -4 4 -10z m110 0 c0 -5 -5 -10 -11 -10 -5 0 -7 5
-4 10 3 6 8 10 11 10 2 0 4 -4 4 -10z m1580 -6 c0 -8 -4 -12 -10 -9 -5 3 -10
10 -10 16 0 5 5 9 10 9 6 0 10 -7 10 -16z m434 -6 c10 -38 7 -48 -15 -48 -17
0 -20 4 -15 23 3 12 6 28 6 35 0 21 17 13 24 -10z m-2054 -2 c0 -8 -7 -16 -15
-20 -17 -6 -18 -4 -9 18 8 20 24 21 24 2z m2100 2 c0 -7 -4 -19 -9 -26 -7 -11
-10 -10 -15 3 -10 26 -7 35 9 35 8 0 15 -6 15 -12z m-350 -20 c0 -13 -32 -6
-37 9 -3 7 3 9 16 6 12 -3 21 -10 21 -15z m55 -9 c10 -15 -1 -23 -20 -15 -9 3
-13 10 -10 16 8 13 22 13 30 -1z m32 -21 c-3 -7 -5 -2 -5 12 0 14 2 19 5 13 2
-7 2 -19 0 -25z m-1977 4 c0 -11 -9 -27 -20 -37 -22 -20 -26 -9 -8 30 13 29
28 33 28 7z m2034 12 c19 -7 22 -44 4 -44 -23 0 -41 18 -35 34 7 18 9 18 31
10z m-2014 -58 c-7 -14 -10 -31 -7 -39 8 -21 -2 -28 -25 -16 -18 10 -17 12 9
49 30 41 44 45 23 6z m51 17 c-20 -37 -40 -59 -41 -44 0 8 10 25 22 38 26 27
32 29 19 6z m2132 -25 c-5 -26 -33 -41 -33 -17 0 5 5 7 10 4 6 -3 10 0 10 8 0
9 -9 12 -30 9 -39 -6 -38 5 3 23 38 16 47 10 40 -27z m-218 -14 c1 -22 -1 -23
-11 -9 -7 9 -10 23 -7 31 8 20 16 9 18 -22z m56 12 c5 3 9 -2 9 -10 0 -20 -7
-20 -25 -2 -8 7 -11 17 -7 20 4 4 8 2 10 -3 2 -6 8 -9 13 -5z m-101 -6 c0 -5
-4 -10 -10 -10 -5 0 -10 5 -10 10 0 6 5 10 10 10 6 0 10 -4 10 -10z m141 -3
c-1 -12 -15 -9 -19 4 -3 6 1 10 8 8 6 -3 11 -8 11 -12z m-181 -18 c0 -5 -4 -9
-10 -9 -5 0 -10 7 -10 16 0 8 5 12 10 9 6 -3 10 -10 10 -16z m-1820 -21 c0 -5
-4 -8 -10 -8 -5 0 -10 10 -10 23 0 18 2 19 10 7 5 -8 10 -18 10 -22z m2065 23
c7 -12 -12 -24 -25 -16 -11 7 -4 25 10 25 5 0 11 -4 15 -9z m-109 -21 c26 0 5
-18 -26 -22 -21 -3 -30 0 -30 9 0 8 5 11 10 8 6 -3 13 2 17 11 4 11 8 13 11 6
2 -7 10 -12 18 -12z m57 -1 c-6 -6 -9 -17 -7 -24 3 -7 1 -16 -5 -20 -7 -4 -11
5 -11 24 0 16 6 31 13 34 17 6 23 -1 10 -14z m-134 -16 c-1 -17 -3 -21 -6 -10
-2 9 -9 17 -14 17 -5 0 -9 5 -9 10 0 6 7 10 15 10 10 0 15 -9 14 -27z m279 4
c2 -10 -2 -16 -10 -14 -7 2 -10 2 -5 0 12 -7 8 -30 -6 -36 -27 -10 -38 7 -26
42 12 34 41 40 47 8z m-2248 -5 c0 -4 -11 -12 -25 -18 -23 -11 -24 -11 -8 12
13 21 33 25 33 6z m2185 -11 c-3 -6 -11 -9 -16 -6 -14 9 -50 -5 -43 -16 3 -6
12 -8 20 -5 7 3 16 1 19 -3 5 -10 -41 -21 -50 -13 -3 3 -5 15 -5 27 0 16 9 25
33 32 33 10 54 3 42 -16z m-1505 9 c0 -5 -4 -10 -10 -10 -5 0 -10 5 -10 10 0
6 5 10 10 10 6 0 10 -4 10 -10z m-120 -20 c0 -5 -5 -10 -11 -10 -5 0 -7 5 -4
10 3 6 8 10 11 10 2 0 4 -4 4 -10z m1490 -20 c-30 -8 -34 -6 -26 15 5 13 9 14
28 4 l23 -13 -25 -6z m233 10 c3 -11 3 -47 0 -80 -6 -58 -7 -60 -34 -60 -31 0
-39 17 -14 26 8 4 12 11 8 18 -9 14 -4 58 8 71 5 5 9 17 9 27 0 24 16 23 23
-2z m-1685 -25 c-1 -32 -2 -33 -15 -16 -7 11 -10 26 -7 35 11 28 23 17 22 -19z
m1297 25 c3 -5 1 -10 -4 -10 -6 0 -11 5 -11 10 0 6 2 10 4 10 3 0 8 -4 11 -10z
m102 -22 c-3 -7 -5 -2 -5 12 0 14 2 19 5 13 2 -7 2 -19 0 -25z m222 -30 c-7
-14 -14 -18 -17 -10 -2 6 -11 12 -20 13 -10 0 -5 6 13 14 37 16 40 13 24 -17z
m111 -1 c0 -5 -4 -5 -10 -2 -5 3 -10 14 -10 23 0 15 2 15 10 2 5 -8 10 -19 10
-23z m-1800 2 c0 -5 -4 -9 -10 -9 -5 0 -10 7 -10 16 0 8 5 12 10 9 6 -3 10
-10 10 -16z m1470 1 c0 -5 -4 -10 -10 -10 -5 0 -10 5 -10 10 0 6 5 10 10 10 6
0 10 -4 10 -10z m154 -5 c3 -8 1 -15 -3 -15 -5 0 -11 7 -15 15 -3 8 -1 15 3
15 5 0 11 -7 15 -15z m-2174 -4 c0 -5 -7 -11 -14 -14 -10 -4 -13 -1 -9 9 6 15
23 19 23 5z m2140 -13 c0 -13 -32 -6 -37 9 -3 7 3 9 16 6 12 -3 21 -10 21 -15z
m-2268 -23 c-12 -22 -27 -2 -18 22 5 12 10 13 17 6 7 -7 8 -17 1 -28z m68 20
c-7 -9 -15 -13 -19 -10 -3 3 1 10 9 15 21 14 24 12 10 -5z m644 9 c17 -7 22
-34 6 -34 -5 0 -10 6 -10 14 0 8 -6 17 -12 19 -7 3 -10 6 -6 6 3 1 13 -2 22
-5z m53 -26 c-3 -8 -6 -5 -6 6 -1 11 2 17 5 13 3 -3 4 -12 1 -19z m183 7 c0
-8 -4 -15 -10 -15 -5 0 -10 7 -10 15 0 8 5 15 10 15 6 0 10 -7 10 -15z m1399
-1 c6 4 11 2 11 -3 0 -6 -9 -11 -20 -11 -12 0 -20 7 -20 18 0 13 2 14 9 3 5
-7 14 -10 20 -7z m-1708 -27 c-8 -8 -11 -7 -11 4 0 9 3 19 7 23 4 4 9 2 11 -4
3 -7 -1 -17 -7 -23z m219 13 c0 -5 -4 -10 -10 -10 -5 0 -10 5 -10 10 0 6 5 10
10 10 6 0 10 -4 10 -10z m1908 -21 l24 -29 -24 -20 c-29 -25 -33 -25 -59 1
-19 19 -23 20 -36 6 -11 -11 -13 -23 -7 -44 4 -15 8 -32 8 -38 1 -5 6 -13 11
-17 6 -5 3 -8 -7 -8 -9 0 -20 5 -23 10 -3 6 -13 10 -21 10 -8 0 -13 -4 -10 -8
2 -4 1 -14 -5 -22 -7 -12 -9 -11 -10 5 0 11 -3 14 -6 8 -7 -19 -23 -16 -23 5
1 20 30 63 30 43 0 -7 6 -11 14 -8 7 3 19 0 25 -6 8 -8 11 -8 11 1 0 6 -11 14
-25 18 -14 3 -26 14 -26 23 -1 14 -2 13 -6 -1 -2 -10 -10 -18 -18 -18 -8 0
-11 7 -8 20 3 12 0 20 -7 20 -7 0 -9 8 -5 21 5 15 4 19 -4 14 -17 -10 -58 2
-64 19 -5 11 15 14 109 14 63 0 118 3 121 6 10 10 17 6 41 -25z m-2734 6 c-4
-8 -11 -12 -16 -9 -6 4 -5 10 3 15 19 12 19 11 13 -6z m731 -4 c6 -11 -15 -61
-27 -61 -4 0 -8 5 -8 10 0 6 5 10 10 10 6 0 8 11 4 25 -6 24 8 35 21 16z m295
-6 c7 -8 8 -15 2 -15 -5 0 -15 7 -22 15 -7 8 -8 15 -2 15 5 0 15 -7 22 -15z
m1420 -19 c0 -29 -25 -53 -36 -35 -4 7 0 16 10 21 11 6 15 16 10 30 -4 14 -2
18 5 14 6 -4 11 -18 11 -30z m-1780 15 c0 -5 -7 -12 -16 -15 -14 -5 -15 -4 -4
9 14 17 20 19 20 6z m196 -38 c11 -4 12 -9 4 -19 -17 -20 -40 -5 -40 25 0 35
14 50 18 21 2 -12 10 -24 18 -27z m104 26 c0 -11 -27 -12 -34 0 -3 4 -3 11 0
14 8 8 34 -3 34 -14z m-1000 2 c0 -6 -4 -13 -10 -16 -5 -3 -10 1 -10 9 0 9 5
16 10 16 6 0 10 -4 10 -9z m1124 -6 c3 -8 1 -15 -4 -15 -6 0 -10 7 -10 15 0 8
2 15 4 15 2 0 6 -7 10 -15z m-294 -13 c0 -10 5 -23 12 -30 7 -7 8 -12 2 -12
-6 0 -16 11 -22 25 -15 32 -15 35 -2 35 6 0 10 -8 10 -18z m120 -8 c0 -8 -4
-12 -10 -9 -5 3 -10 10 -10 16 0 5 5 9 10 9 6 0 10 -7 10 -16z m1580 6 c0 -5
-9 -14 -20 -20 -15 -8 -20 -8 -20 3 0 8 3 17 7 20 10 10 33 8 33 -3z m-2491
-32 c-8 -14 -14 -18 -17 -10 -4 13 17 46 25 38 3 -2 -1 -15 -8 -28z m587 0
c-18 -26 -22 -17 -5 14 6 11 13 17 16 15 3 -3 -2 -16 -11 -29z m174 -12 c0
-24 -6 -48 -13 -55 -19 -15 -28 -2 -16 21 6 11 8 26 5 34 -6 17 3 44 15 44 5
0 9 -20 9 -44z m383 24 c-4 -16 -2 -19 11 -14 9 3 16 2 16 -3 0 -17 -13 -23
-26 -13 -6 6 -16 10 -20 9 -22 -4 -44 2 -44 12 0 5 4 8 9 5 5 -3 14 1 21 9 18
22 39 19 33 -5z m1222 10 c3 -5 1 -10 -4 -10 -6 0 -11 5 -11 10 0 6 2 10 4 10
3 0 8 -4 11 -10z m-1735 -29 c-10 -20 -30 -29 -30 -14 0 10 33 44 37 39 3 -2
0 -14 -7 -25z m380 9 c0 -5 -6 -10 -14 -10 -8 0 -18 5 -21 10 -3 6 3 10 14 10
12 0 21 -4 21 -10z m1683 -13 c31 -14 37 -22 37 -47 0 -44 -33 -40 -65 7 -24
36 -34 69 -17 61 4 -2 24 -12 45 -21z m-1763 -2 c0 -8 -2 -15 -4 -15 -2 0 -6
7 -10 15 -3 8 -1 15 4 15 6 0 10 -7 10 -15z m-220 -4 c0 -6 -11 -22 -25 -37
-14 -15 -25 -33 -25 -40 0 -8 -4 -14 -10 -14 -20 0 -9 40 15 56 14 9 25 23 25
30 0 8 5 14 10 14 6 0 10 -4 10 -9z m184 -16 c7 -29 0 -48 -15 -40 -12 8 -12
65 0 65 5 0 12 -11 15 -25z m1606 21 c0 -11 -19 -15 -25 -6 -3 5 1 10 9 10 9
0 16 -2 16 -4z m-2010 -16 c0 -5 -4 -10 -10 -10 -5 0 -10 5 -10 10 0 6 5 10
10 10 6 0 10 -4 10 -10z m515 0 c3 -5 16 -10 27 -10 12 0 18 -3 15 -6 -3 -4 3
-18 13 -32 31 -38 26 -54 -10 -36 -29 15 -34 24 -31 52 1 6 -7 12 -19 12 -11
0 -20 7 -20 15 0 17 16 20 25 5z m-365 -14 c0 -8 -6 -16 -14 -19 -10 -4 -12 0
-9 14 6 22 23 26 23 5z m455 -4 c-3 -3 -11 0 -18 7 -9 10 -8 11 6 5 10 -3 15
-9 12 -12z m1364 -11 c-15 -5 -22 6 -14 19 6 9 10 9 16 -1 5 -8 4 -15 -2 -18z
m62 -4 c-8 -8 -11 -7 -11 4 0 20 13 34 18 19 3 -7 -1 -17 -7 -23z m-2571 13
c0 -5 -5 -10 -11 -10 -5 0 -7 5 -4 10 3 6 8 10 11 10 2 0 4 -4 4 -10z m2410 0
c0 -13 -11 -13 -30 0 -12 8 -11 10 8 10 12 0 22 -4 22 -10z m62 -5 c0 -5 -5
-11 -11 -13 -6 -2 -11 4 -11 13 0 9 5 15 11 13 6 -2 11 -8 11 -13z m-2502 -5
c0 -5 -2 -10 -4 -10 -3 0 -8 5 -11 10 -3 6 -1 10 4 10 6 0 11 -4 11 -10z m878
-12 c-4 -27 -28 -36 -28 -10 0 20 8 32 22 32 5 0 8 -10 6 -22z m-293 -15 c-9
-8 -23 -12 -32 -8 -15 5 -14 8 7 19 31 16 45 10 25 -11z m359 18 c3 -5 -4 -20
-15 -35 -11 -14 -18 -34 -16 -44 4 -14 6 -14 12 6 8 25 20 29 29 7 8 -22 -4
-45 -20 -38 -12 4 -14 -4 -12 -38 2 -35 -1 -44 -14 -47 -14 -3 -18 3 -18 22 0
14 6 26 13 26 9 0 9 2 -1 8 -7 5 -10 16 -6 25 3 9 3 24 0 33 -6 15 -8 15 -26
-1 -19 -17 -20 -17 -20 -1 0 10 9 20 20 23 11 3 20 12 20 20 0 8 8 13 18 11
11 -2 17 3 16 15 -2 18 11 23 20 8z m-279 -11 c-3 -5 -11 -10 -16 -10 -6 0 -7
5 -4 10 3 6 11 10 16 10 6 0 7 -4 4 -10z m545 0 c0 -13 -11 -13 -30 0 -12 8
-11 10 8 10 12 0 22 -4 22 -10z m-186 -22 c8 -36 15 -105 10 -85 -3 9 -10 17
-15 17 -5 0 -9 12 -9 26 0 14 -5 34 -10 45 -8 15 -7 19 4 19 9 0 18 -10 20
-22z m-234 2 c0 -5 -4 -10 -10 -10 -5 0 -10 5 -10 10 0 6 5 10 10 10 6 0 10
-4 10 -10z m50 1 c0 -5 -9 -19 -20 -32 -15 -19 -19 -21 -20 -7 0 9 7 24 16 32
18 18 24 20 24 7z m450 5 c0 -3 -4 -8 -10 -11 -5 -3 -10 -1 -10 4 0 6 5 11 10
11 6 0 10 -2 10 -4z m-300 -21 c0 -8 -4 -15 -10 -15 -5 0 -10 7 -10 15 0 8 5
15 10 15 6 0 10 -7 10 -15z m1700 6 c0 -5 -6 -14 -14 -20 -12 -10 -13 -8 -9 8
5 21 23 30 23 12z m-2026 -25 c-3 -13 -1 -27 5 -31 15 -8 4 -25 -15 -25 -11 0
-13 6 -9 20 4 14 2 20 -8 20 -8 0 -18 7 -21 16 -4 12 -1 14 13 9 11 -3 22 -1
26 5 11 18 16 11 9 -14z m566 9 c0 -17 -2 -18 -24 -9 -23 9 -20 24 4 24 11 0
20 -7 20 -15z m1361 0 c1 -17 -18 -17 -25 0 -4 11 -1 15 10 13 8 -2 15 -7 15
-13z m35 -22 c-10 -10 -19 5 -10 18 6 11 8 11 12 0 2 -7 1 -15 -2 -18z m-2036
-27 c0 -6 -7 -2 -15 8 -8 11 -15 25 -15 30 0 6 7 2 15 -8 8 -11 15 -25 15 -30z
m120 34 c0 -5 -5 -10 -11 -10 -5 0 -7 5 -4 10 3 6 8 10 11 10 2 0 4 -4 4 -10z
m565 -1 c11 -17 -1 -21 -15 -4 -8 9 -8 15 -2 15 6 0 14 -5 17 -11z m-215 -21
c0 -18 -2 -20 -9 -8 -6 8 -7 18 -5 22 9 14 14 9 14 -14z m121 12 c10 -6 19
-17 19 -24 0 -8 7 -19 15 -26 17 -14 20 -30 5 -30 -5 0 -23 20 -40 45 -32 47
-32 52 1 35z m-1187 -34 c-9 -15 -19 -25 -21 -22 -3 2 3 16 13 30 9 15 19 25
21 22 3 -2 -3 -16 -13 -30z m833 -17 c-6 -16 -15 -29 -19 -29 -12 0 -10 38 3
62 16 31 29 3 16 -33z m1724 38 c-1 -12 -15 -9 -19 4 -3 6 1 10 8 8 6 -3 11
-8 11 -12z m-1801 -6 c0 -6 -4 -13 -10 -16 -5 -3 -10 1 -10 9 0 9 5 16 10 16
6 0 10 -4 10 -9z m33 -11 c3 -11 1 -20 -4 -20 -5 0 -9 9 -9 20 0 11 2 20 4 20
2 0 6 -9 9 -20z m213 -7 c-10 -10 -19 5 -10 18 6 11 8 11 12 0 2 -7 1 -15 -2
-18z m1683 -15 c0 -30 -1 -31 -9 -10 -5 12 -14 22 -20 22 -5 0 -10 5 -10 10 0
6 9 10 20 10 16 0 20 -6 19 -32z m-1714 -6 c0 -18 -20 -15 -23 4 -3 10 1 15
10 12 7 -3 13 -10 13 -16z m350 7 c11 -17 -1 -21 -15 -4 -8 9 -8 15 -2 15 6 0
14 -5 17 -11z m-447 -28 c-1 -15 2 -33 6 -40 4 -6 2 -11 -4 -11 -8 0 -9 -10
-5 -30 5 -23 3 -30 -9 -30 -9 0 -16 5 -16 10 0 6 5 10 11 10 5 0 7 5 4 10 -5
8 -11 7 -21 -1 -18 -14 -27 -8 -18 14 3 9 12 13 20 10 10 -4 14 3 14 21 0 14
-5 26 -10 26 -6 0 -5 8 2 20 18 28 27 25 26 -9z m152 24 c0 -3 -21 -26 -47
-50 -26 -25 -40 -45 -32 -45 8 0 20 5 26 11 6 6 13 7 16 1 4 -5 -7 -19 -23
-31 -20 -14 -30 -30 -30 -48 0 -14 -3 -23 -7 -19 -4 4 -6 25 -4 46 1 24 -2 40
-8 40 -6 0 -11 -5 -11 -12 0 -6 -2 -9 -5 -6 -10 9 6 37 19 32 6 -2 19 9 29 25
10 16 26 33 37 36 11 4 20 11 20 16 0 5 5 9 10 9 6 0 10 -2 10 -5z m420 -5 c0
-5 -2 -10 -4 -10 -3 0 -8 5 -11 10 -3 6 -1 10 4 10 6 0 11 -4 11 -10z m-680
-8 c0 -13 -12 -22 -22 -16 -10 6 -1 24 13 24 5 0 9 -4 9 -8z m592 -38 c-5 -37
-5 -37 -18 -13 -7 13 -8 25 -3 27 5 2 9 10 9 18 0 9 4 13 8 10 4 -3 6 -22 4
-42z m78 -11 c0 -13 -4 -23 -10 -23 -5 0 -10 11 -10 25 0 14 -4 25 -10 25 -5
0 -10 5 -10 10 0 6 8 5 20 -2 11 -7 20 -23 20 -35z m-380 21 c0 -8 -4 -12 -10
-9 -5 3 -10 10 -10 16 0 5 5 9 10 9 6 0 10 -7 10 -16z m-260 -26 c0 -5 -4 -8
-10 -8 -5 0 -10 10 -10 23 0 18 2 19 10 7 5 -8 10 -18 10 -22z m234 -26 c0
-30 4 -42 13 -42 10 0 14 10 11 32 -2 20 2 33 11 36 10 3 11 -2 6 -18 -5 -14
-2 -25 6 -30 9 -6 3 -17 -22 -39 l-34 -32 -3 31 c-3 29 -4 30 -25 15 -30 -21
-40 -19 -25 5 7 11 19 20 26 20 8 0 13 10 12 23 -4 38 0 49 13 44 7 -2 12 -20
11 -45z m366 22 c0 -8 -4 -12 -10 -9 -5 3 -10 13 -10 21 0 8 5 12 10 9 6 -3
10 -13 10 -21z m1270 17 c0 -5 -7 -11 -14 -14 -10 -4 -13 -1 -9 9 6 15 23 19
23 5z m-50 -11 c0 -5 -5 -10 -11 -10 -5 0 -7 5 -4 10 3 6 8 10 11 10 2 0 4 -4
4 -10z m-2649 -43 c-10 -9 -11 -8 -5 6 3 10 9 15 12 12 3 -3 0 -11 -7 -18z
m1458 -24 c-1 -37 -1 -37 -8 -8 -7 28 -5 45 5 45 2 0 3 -17 3 -37z m1241 27
c0 -5 -2 -10 -4 -10 -3 0 -8 5 -11 10 -3 6 -1 10 4 10 6 0 11 -4 11 -10z
m-2665 -47 c-8 -19 -12 -39 -9 -44 3 -5 0 -9 -7 -9 -8 0 -10 12 -5 42 8 48 14
60 27 53 5 -4 3 -21 -6 -42z m1614 40 c0 -5 -4 -17 -9 -28 -8 -18 -9 -17 -9 8
-1 15 4 27 9 27 6 0 10 -3 9 -7z m-139 -19 c0 -9 -5 -14 -12 -12 -18 6 -21 28
-4 28 9 0 16 -7 16 -16z m1214 -16 c8 -33 7 -50 -3 -44 -11 7 -20 66 -10 66 3
0 9 -10 13 -22z m33 0 c-3 -8 -6 -5 -6 6 -1 11 2 17 5 13 3 -3 4 -12 1 -19z
m-2695 -30 c-7 -7 -12 -8 -12 -2 0 14 12 26 19 19 2 -3 -1 -11 -7 -17z m1104
-73 c-55 -51 -62 -37 -8 18 25 26 31 36 17 31 -11 -4 -28 -14 -38 -22 -10 -9
-27 -17 -38 -19 -17 -3 -18 0 -9 18 11 19 10 20 -12 8 -13 -6 -26 -17 -30 -23
-4 -6 -10 -7 -14 -3 -4 3 11 22 32 42 50 44 81 48 55 5 -21 -32 2 -27 36 8
l36 37 10 -29 c9 -27 6 -32 -37 -71z m449 75 c3 -5 1 -10 -4 -10 -6 0 -11 5
-11 10 0 6 2 10 4 10 3 0 8 -4 11 -10z m145 -25 c0 -12 -29 -3 -34 10 -4 13
-2 14 14 5 11 -6 20 -13 20 -15z m1097 -21 c10 4 13 0 11 -11 -2 -9 -8 -18
-15 -20 -15 -5 -42 47 -35 67 4 10 8 6 15 -13 6 -19 14 -26 24 -23z m-1957 26
c0 -5 -4 -10 -10 -10 -5 0 -10 5 -10 10 0 6 5 10 10 10 6 0 10 -4 10 -10z
m105 0 c3 -5 1 -10 -4 -10 -6 0 -11 5 -11 10 0 6 2 10 4 10 3 0 8 -4 11 -10z
m1795 -10 c0 -5 -4 -10 -10 -10 -5 0 -10 5 -10 10 0 6 5 10 10 10 6 0 10 -4
10 -10z m-1110 -78 c0 -8 10 -22 23 -32 12 -10 19 -21 16 -24 -10 -10 -39 5
-39 20 0 8 -4 14 -10 14 -5 0 -10 6 -10 13 0 6 -9 23 -20 37 -32 41 -23 59 10
20 17 -19 30 -40 30 -48z m23 49 c-2 -14 3 -21 14 -21 15 0 42 -27 43 -42 0
-16 -41 -7 -47 10 -4 9 -14 23 -22 30 -12 10 -13 14 -3 19 10 4 10 8 0 21 -11
13 -11 14 2 10 8 -3 14 -15 13 -27z m-1651 -16 c-2 -19 -9 -35 -14 -35 -6 0
-7 7 -4 16 3 9 6 24 6 35 0 10 4 19 8 19 4 0 6 -16 4 -35z m1708 4 c0 -6 -4
-7 -10 -4 -5 3 -10 11 -10 16 0 6 5 7 10 4 6 -3 10 -11 10 -16z m-1760 -21 c0
-18 -5 -40 -10 -48 -7 -11 -10 -2 -10 33 0 26 5 47 10 47 6 0 10 -15 10 -32z
m2820 -14 c0 -17 -34 5 -36 23 -4 23 -4 23 16 3 11 -11 20 -23 20 -26z m-1775
17 c3 -5 1 -12 -5 -16 -5 -3 -10 1 -10 9 0 18 6 21 15 7z m761 -16 c-1 -25
-10 -32 -20 -16 -7 11 3 41 14 41 4 0 7 -11 6 -25z m879 6 c3 -5 1 -12 -5 -16
-5 -3 -10 1 -10 9 0 18 6 21 15 7z m-1590 -11 c-3 -5 -16 -10 -28 -9 -20 1
-20 2 3 9 14 4 26 8 28 9 2 1 0 -3 -3 -9z m545 -15 c0 -8 5 -15 10 -15 6 0 10
-7 10 -15 0 -18 -12 -19 -28 -3 -15 15 -16 48 -2 48 6 0 10 -7 10 -15z m190
-20 c-7 -9 -15 -13 -17 -11 -6 6 20 36 26 30 2 -2 -2 -10 -9 -19z m999 -22 c1
-7 -3 -13 -9 -13 -5 0 -10 15 -9 33 0 27 2 29 9 12 5 -11 9 -26 9 -32z m-2799
7 c0 -5 -4 -10 -10 -10 -5 0 -10 5 -10 10 0 6 5 10 10 10 6 0 10 -4 10 -10z
m22 -15 c1 -11 7 -23 13 -27 5 -4 6 -10 2 -15 -11 -10 -27 17 -27 46 0 28 6
26 12 -4z m1032 0 c-17 -26 -34 -33 -34 -14 0 12 29 38 43 39 4 0 0 -11 -9
-25z m504 -17 c8 -7 12 -7 12 1 0 13 26 15 35 2 3 -5 -8 -38 -23 -73 -27 -57
-50 -111 -79 -178 -10 -24 -11 -24 -18 -5 -5 11 -16 29 -25 40 -25 29 -110
198 -110 219 0 16 8 17 98 11 53 -4 103 -12 110 -17z m92 -3 c0 -20 10 -19 25
2 11 15 14 15 32 -3 15 -14 18 -25 12 -39 -7 -19 -8 -19 -8 3 -1 14 -5 21 -12
16 -7 -4 -9 -22 -6 -48 5 -32 1 -50 -19 -84 -34 -58 -42 -47 -9 13 14 27 23
50 21 52 -7 7 -42 -50 -62 -100 -10 -27 -33 -65 -50 -85 -27 -32 -33 -35 -48
-23 -23 19 -21 30 30 143 25 57 52 118 60 136 14 33 34 43 34 17z m147 -21 c9
-19 9 -33 1 -52 -10 -25 -11 -26 -18 -7 -11 26 -12 85 -2 85 4 0 12 -12 19
-26z m1010 4 c-3 -8 -6 -5 -6 6 -1 11 2 17 5 13 3 -3 4 -12 1 -19z m-47 -3 c0
-8 -4 -15 -10 -15 -5 0 -10 7 -10 15 0 8 5 15 10 15 6 0 10 -7 10 -15z m-1660
-15 c0 -5 -5 -10 -11 -10 -5 0 -7 5 -4 10 3 6 8 10 11 10 2 0 4 -4 4 -10z
m925 -10 c3 -5 1 -10 -4 -10 -6 0 -11 5 -11 10 0 6 2 10 4 10 3 0 8 -4 11 -10z
m-885 -9 c0 -6 -4 -13 -10 -16 -5 -3 -10 1 -10 9 0 9 5 16 10 16 6 0 10 -4 10
-9z m244 -63 c10 -26 29 -64 42 -84 19 -28 24 -44 19 -68 -6 -28 -5 -29 7 -13
13 17 15 16 42 -12 l28 -30 -37 -32 c-40 -35 -108 -130 -130 -182 -13 -28 -14
-3 -15 233 0 221 2 262 13 250 8 -8 22 -36 31 -62z m310 -135 c-74 -123 -84
-135 -97 -120 -41 43 -41 42 21 114 57 67 93 128 109 188 7 25 9 18 11 -37 3
-65 1 -71 -44 -145z m1141 197 c3 -5 1 -10 -4 -10 -6 0 -11 5 -11 10 0 6 2 10
4 10 3 0 8 -4 11 -10z m-2804 -43 c-10 -9 -11 -8 -5 6 3 10 9 15 12 12 3 -3 0
-11 -7 -18z m1739 -31 c-7 -7 -10 1 -9 25 0 32 1 33 10 10 6 -16 6 -28 -1 -35z
m86 25 c-1 -3 -6 -15 -10 -26 -7 -19 -8 -19 -21 5 -16 30 -1 58 21 39 8 -6 12
-14 10 -18z m-716 -5 c0 -14 -4 -27 -10 -31 -5 -3 -8 7 -7 25 2 36 17 41 17 6z
m1629 -48 c0 -28 -2 -30 -9 -13 -12 28 -12 45 0 45 6 0 10 -15 9 -32z m-2769
-2 c0 -6 -7 -20 -15 -30 -15 -19 -15 -19 -15 1 0 12 -3 28 -6 36 -4 12 0 14
15 10 12 -3 21 -10 21 -17z m1816 -3 c7 -34 39 -97 71 -139 22 -30 31 -64 16
-64 -8 0 -29 33 -71 110 -26 48 -52 80 -52 64 0 -5 7 -19 15 -31 8 -11 19 -33
25 -47 7 -21 7 -26 -5 -26 -8 0 -15 6 -15 13 0 6 -9 23 -20 37 -24 30 -26 73
-4 94 22 23 33 20 40 -11z m64 18 c0 -5 -7 -11 -15 -15 -15 -5 -20 5 -8 17 9
10 23 9 23 -2z m124 -17 c3 -8 2 -12 -4 -9 -6 3 -10 10 -10 16 0 14 7 11 14
-7z m-1953 -47 c-8 -8 -11 -4 -11 14 0 33 14 47 18 19 2 -12 -1 -27 -7 -33z
m119 33 c0 -5 -4 -10 -10 -10 -5 0 -10 5 -10 10 0 6 5 10 10 10 6 0 10 -4 10
-10z m950 -9 c0 -6 -4 -13 -10 -16 -5 -3 -10 1 -10 9 0 9 5 16 10 16 6 0 10
-4 10 -9z m750 -32 c0 -6 -4 -7 -10 -4 -5 3 -10 11 -10 16 0 6 5 7 10 4 6 -3
10 -11 10 -16z m909 -19 c0 -10 -3 -8 -9 5 -12 27 -12 43 0 25 5 -8 9 -22 9
-30z m-2687 -38 l-17 -26 -3 32 c-2 19 2 40 9 49 11 13 14 12 21 -7 5 -14 2
-30 -10 -48z m1634 9 c-9 -10 -16 -24 -16 -32 0 -8 -7 -24 -15 -36 -9 -13 -11
-24 -5 -28 5 -3 12 6 16 20 3 14 10 25 14 25 5 0 11 10 13 23 3 12 4 -23 2
-78 -2 -55 -4 -138 -5 -185 0 -63 -3 -80 -11 -68 -5 10 -9 24 -7 30 1 7 -3 28
-11 46 -12 29 -12 35 4 52 9 10 15 25 12 32 -3 8 -9 2 -17 -14 -13 -28 -30
-38 -30 -18 0 6 -11 29 -26 51 l-25 40 38 65 c20 35 41 64 45 64 4 0 8 7 8 16
0 8 6 25 12 37 l13 22 3 -23 c2 -13 -4 -32 -12 -41z m1081 37 c-3 -8 -6 -5 -6
6 -1 11 2 17 5 13 3 -3 4 -12 1 -19z m-897 -3 c0 -8 -4 -15 -10 -15 -5 0 -10
7 -10 15 0 8 5 15 10 15 6 0 10 -7 10 -15z m-789 -58 c-7 -7 -9 -1 -7 19 6 46
9 51 13 20 3 -16 0 -33 -6 -39z m-859 28 c3 -13 1 -22 -3 -19 -9 5 -13 44 -5
44 2 0 6 -11 8 -25z m1688 15 c0 -5 -2 -10 -4 -10 -3 0 -8 5 -11 10 -3 6 -1
10 4 10 6 0 11 -4 11 -10z m25 0 c3 -5 1 -10 -4 -10 -6 0 -11 5 -11 10 0 6 2
10 4 10 3 0 8 -4 11 -10z m741 -5 c-11 -8 -22 -12 -25 -9 -6 6 19 24 34 24 6
-1 1 -7 -9 -15z m-2666 -9 c0 -8 -4 -18 -10 -21 -5 -3 -10 3 -10 14 0 12 5 21
10 21 6 0 10 -6 10 -14z m107 -18 c-3 -8 -6 -5 -6 6 -1 11 2 17 5 13 3 -3 4
-12 1 -19z m77 1 c-8 -13 -21 -11 -27 5 -4 10 0 12 14 9 10 -3 16 -9 13 -14z
m2512 1 c0 -12 -4 -16 -9 -11 -5 5 -6 14 -3 20 10 15 12 14 12 -9z m64 -45 c0
-18 -4 -23 -15 -18 -9 3 -15 2 -14 -3 4 -24 -2 -36 -17 -30 -8 3 -13 2 -10 -2
7 -12 -40 -79 -64 -92 -11 -6 -20 -17 -20 -25 0 -8 -7 -15 -15 -15 -19 0 -19
5 2 38 44 69 66 93 74 80 6 -9 9 -4 9 15 0 17 5 27 15 27 8 0 15 7 15 15 0 8
5 15 10 15 6 0 10 7 10 16 0 8 5 12 10 9 6 -3 10 -17 10 -30z m-2768 -7 c-15
-15 -26 -4 -18 18 5 13 9 15 18 6 9 -9 9 -15 0 -24z m1913 22 c-3 -5 -11 -10
-16 -10 -6 0 -7 5 -4 10 3 6 11 10 16 10 6 0 7 -4 4 -10z m-1705 -31 c-14 -25
-17 -24 -14 4 3 30 3 29 14 22 7 -4 7 -13 0 -26z m1620 -19 c11 -22 20 -47 19
-57 0 -13 -3 -11 -10 7 -6 13 -13 27 -17 30 -11 8 -32 48 -32 60 0 20 20 0 40
-40z m154 25 c-4 -8 -8 -15 -10 -15 -2 0 -4 7 -4 15 0 8 4 15 10 15 5 0 7 -7
4 -15z m660 -51 c-14 -27 -33 -56 -42 -64 -13 -11 -14 -12 -4 -1 6 8 12 20 12
27 0 14 52 96 57 91 2 -2 -9 -26 -23 -53z m-1135 20 c1 5 10 1 22 -10 16 -14
19 -26 14 -54 -5 -33 -4 -34 10 -16 17 23 16 23 44 -31 26 -51 26 -63 4 -89
-23 -26 -76 -124 -71 -130 5 -4 68 92 68 102 0 12 30 35 39 30 4 -3 11 -25 15
-48 26 -155 25 -165 -15 -155 -13 3 -96 9 -184 13 -88 3 -161 7 -161 8 -1 0 2
33 7 71 11 91 63 195 138 275 46 49 57 57 63 42 3 -9 7 -13 7 -8z m1065 10 c5
-14 4 -15 -9 -4 -17 14 -19 20 -6 20 5 0 12 -7 15 -16z m-2334 -9 c0 -8 -4
-15 -10 -15 -5 0 -7 7 -4 15 4 8 8 15 10 15 2 0 4 -7 4 -15z m895 -20 c0 -13
-5 -27 -12 -29 -9 -4 -13 4 -13 23 0 48 22 53 25 6z m-65 11 c0 -3 -4 -8 -10
-11 -5 -3 -10 -1 -10 4 0 6 5 11 10 11 6 0 10 -2 10 -4z m954 -17 c-3 -5 -10
-7 -15 -3 -5 3 -7 10 -3 15 3 5 10 7 15 3 5 -3 7 -10 3 -15z m-1834 1 c0 -5
-5 -10 -11 -10 -5 0 -7 5 -4 10 3 6 8 10 11 10 2 0 4 -4 4 -10z m1720 -21 c19
-45 -3 -62 -25 -20 -15 30 -13 51 4 51 5 0 14 -14 21 -31z m857 -6 c-3 -10 -5
-4 -5 12 0 17 2 24 5 18 2 -7 2 -21 0 -30z m-2527 6 c0 -6 -4 -7 -10 -4 -5 3
-10 11 -10 16 0 6 5 7 10 4 6 -3 10 -11 10 -16z m2350 -10 c0 -6 -4 -7 -10 -4
-5 3 -10 11 -10 16 0 6 5 7 10 4 6 -3 10 -11 10 -16z m-1490 2 c0 -5 -7 -12
-16 -15 -14 -5 -15 -4 -4 9 14 17 20 19 20 6z m871 -6 c1 -17 -18 -17 -25 0
-4 11 -1 15 10 13 8 -2 15 -7 15 -13z m779 -13 c-1 -9 -19 -35 -40 -57 -22
-22 -40 -43 -40 -47 0 -5 -4 -8 -10 -8 -5 0 -10 17 -10 38 1 34 2 35 15 19 13
-18 14 -17 17 5 2 13 9 22 17 20 22 -5 42 19 35 41 -4 13 -2 17 5 13 6 -4 11
-15 11 -24z m-2455 8 c3 -5 1 -10 -4 -10 -6 0 -11 5 -11 10 0 6 2 10 4 10 3 0
8 -4 11 -10z m-175 -4 c0 -11 -19 -15 -25 -6 -3 5 1 10 9 10 9 0 16 -2 16 -4z
m1830 -46 c7 -16 10 -37 6 -46 -10 -25 -36 8 -36 45 0 39 14 40 30 1z m-1710
10 c0 -5 -9 -10 -20 -10 -11 0 -20 5 -20 10 0 6 9 10 20 10 11 0 20 -4 20 -10z
m-84 -17 c-11 -11 -46 -14 -46 -3 0 6 12 10 27 10 14 0 23 -3 19 -7z m131 -15
c-3 -8 -6 -5 -6 6 -1 11 2 17 5 13 3 -3 4 -12 1 -19z m1753 -24 c0 -8 -7 -14
-15 -14 -8 0 -15 9 -15 20 0 13 5 18 15 14 8 -4 15 -12 15 -20z m473 -34 c-5
-20 -23 -38 -23 -23 1 22 13 52 20 48 5 -3 6 -14 3 -25z m130 16 c6 -15 -1
-26 -15 -26 -4 0 -8 9 -8 20 0 23 15 27 23 6z m-2603 -5 c0 -12 -35 -20 -50
-11 -9 6 -8 9 6 13 32 8 44 7 44 -2z m1940 -6 c0 -8 -4 -15 -10 -15 -5 0 -10
7 -10 15 0 8 5 15 10 15 6 0 10 -7 10 -15z m-1750 1 c0 -2 -7 -6 -15 -10 -8
-3 -15 -1 -15 4 0 6 7 10 15 10 8 0 15 -2 15 -4z m1772 -48 c-15 -15 -26 -4
-18 18 5 13 9 15 18 6 9 -9 9 -15 0 -24z m-2056 -15 c-10 -10 -19 5 -10 18 6
11 8 11 12 0 2 -7 1 -15 -2 -18z m26 5 c-7 -7 -12 -8 -12 -2 0 14 12 26 19 19
2 -3 -1 -11 -7 -17z m1994 5 c15 -21 18 -43 5 -43 -5 0 -14 14 -20 30 -11 34
-5 39 15 13z m91 -73 c2 -2 8 2 12 9 6 9 9 5 9 -13 0 -14 -4 -23 -9 -20 -5 3
-9 0 -9 -5 0 -6 -4 -11 -10 -11 -5 0 -7 7 -4 14 3 8 -4 25 -15 37 -12 13 -21
32 -21 43 0 17 4 14 21 -14 12 -19 23 -37 26 -40z m13 55 c0 -8 -4 -15 -10
-15 -5 0 -10 7 -10 15 0 8 5 15 10 15 6 0 10 -7 10 -15z m331 -16 c-9 -22 -10
-22 -10 -3 -1 11 2 24 6 27 12 12 14 0 4 -24z m-2414 -11 c-3 -7 -5 -2 -5 12
0 14 2 19 5 13 2 -7 2 -19 0 -25z m955 -20 c-22 -25 -35 -22 -20 5 7 12 13 25
14 30 4 20 6 21 14 2 5 -13 3 -26 -8 -37z m48 37 c0 -8 -4 -15 -10 -15 -5 0
-7 7 -4 15 4 8 8 15 10 15 2 0 4 -7 4 -15z m-1074 -67 c-18 -51 -21 -32 -4 25
7 22 14 35 16 29 2 -6 -4 -30 -12 -54z m30 5 c-18 -34 -21 -9 -3 30 7 16 13
21 15 12 2 -7 -4 -26 -12 -42z m2420 32 c-19 -15 -46 -20 -46 -10 0 6 40 24
55 24 6 0 1 -6 -9 -14z m-344 -47 c-6 -6 -15 0 -25 15 -21 32 -11 41 15 15 13
-13 17 -23 10 -30z m108 38 c0 -3 -4 -8 -10 -11 -5 -3 -10 -1 -10 4 0 6 5 11
10 11 6 0 10 -2 10 -4z m-1152 -38 c-4 -27 -28 -36 -28 -10 0 20 8 32 22 32 5
0 8 -10 6 -22z m1380 -3 c-7 -16 -15 -22 -21 -16 -13 13 -1 41 17 41 13 0 14
-4 4 -25z m-103 -14 c-3 -6 -11 -11 -17 -11 -6 0 -6 6 2 15 14 17 26 13 15 -4z
m-1325 -6 c0 -9 -9 -15 -21 -15 -18 0 -19 2 -9 15 7 8 16 15 21 15 5 0 9 -7 9
-15z m1200 0 c-7 -9 -15 -13 -17 -11 -7 7 7 26 19 26 6 0 6 -6 -2 -15z m-2020
-15 c0 -5 -6 -10 -14 -10 -8 0 -18 5 -21 10 -3 6 3 10 14 10 12 0 21 -4 21
-10z m145 0 c-3 -5 -13 -10 -21 -10 -8 0 -14 5 -14 10 0 6 9 10 21 10 11 0 17
-4 14 -10z m-213 -22 c-6 -6 -15 -8 -19 -4 -4 4 -1 11 7 16 19 12 27 3 12 -12z
m162 7 c-4 -8 -8 -15 -10 -15 -2 0 -4 7 -4 15 0 8 4 15 10 15 5 0 7 -7 4 -15z
m-34 -5 c0 -5 -7 -10 -16 -10 -8 0 -12 5 -9 10 3 6 10 10 16 10 5 0 9 -4 9
-10z m410 6 c0 -2 -7 -7 -16 -10 -8 -3 -12 -2 -9 4 6 10 25 14 25 6z m140 -10
c0 -2 -7 -7 -16 -10 -8 -3 -12 -2 -9 4 6 10 25 14 25 6z m200 0 c0 -3 -4 -8
-10 -11 -5 -3 -10 -1 -10 4 0 6 5 11 10 11 6 0 10 -2 10 -4z m1260 -6 c0 -5
-5 -10 -11 -10 -5 0 -7 5 -4 10 3 6 8 10 11 10 2 0 4 -4 4 -10z m-1770 -4 c0
-9 -30 -14 -35 -6 -4 6 3 10 14 10 12 0 21 -2 21 -4z m50 -17 c0 -5 -4 -8 -9
-4 -5 3 -12 1 -16 -5 -3 -5 -12 -10 -18 -10 -7 0 -3 7 7 15 23 18 36 19 36 4z
m415 2 c3 -5 1 -12 -5 -16 -5 -3 -10 1 -10 9 0 18 6 21 15 7z m-215 -11 c0 -5
-5 -10 -11 -10 -5 0 -7 5 -4 10 3 6 8 10 11 10 2 0 4 -4 4 -10z m110 1 c0 -12
-20 -25 -27 -18 -7 7 6 27 18 27 5 0 9 -4 9 -9z m-440 -5 c0 -2 -7 -6 -15 -10
-8 -3 -15 -1 -15 4 0 6 7 10 15 10 8 0 15 -2 15 -4z m70 -11 c11 -13 8 -15
-14 -15 -25 0 -33 10 -19 23 10 11 19 8 33 -8z m554 6 c7 -10 -22 -37 -30 -28
-9 8 3 37 15 37 5 0 12 -4 15 -9z m-63 -35 c-6 -14 -16 -26 -22 -26 -7 0 -17
-7 -24 -16 -8 -11 -19 -14 -33 -10 -29 10 -28 19 6 34 52 24 72 37 72 46 0 5
2 7 5 4 3 -3 1 -17 -4 -32z m-377 15 c14 -5 16 -10 8 -15 -7 -4 -16 -5 -21 -1
-5 3 -21 0 -36 -7 -22 -10 -28 -9 -35 3 -7 10 -3 16 18 20 37 9 44 9 66 0z
m86 -1 c0 -5 8 -7 18 -4 14 5 14 4 3 -4 -10 -7 -21 -7 -33 -1 -22 12 -23 19
-3 19 8 0 15 -4 15 -10z m-154 -71 c-20 -17 -41 -29 -48 -27 -7 3 2 13 20 23
18 11 32 23 32 27 0 4 7 8 15 8 10 0 2 -12 -19 -31z"/>
<path d="M2340 2970 c0 -5 5 -10 11 -10 5 0 7 5 4 10 -3 6 -8 10 -11 10 -2 0
-4 -4 -4 -10z"/>
<path d="M2390 2915 c32 -33 40 -39 40 -32 0 8 -58 67 -65 67 -5 0 6 -16 25
-35z"/>
<path d="M2002 3018 c-15 -40 -3 -59 15 -24 8 16 10 32 6 41 -7 11 -11 8 -21
-17z"/>
<path d="M4130 2289 c0 -5 5 -7 10 -4 6 3 10 8 10 11 0 2 -4 4 -10 4 -5 0 -10
-5 -10 -11z"/>
<path d="M4185 2231 c-3 -5 -1 -12 5 -16 5 -3 10 1 10 9 0 18 -6 21 -15 7z"/>
<path d="M4195 2181 c-6 -11 9 -23 19 -14 9 9 7 23 -3 23 -6 0 -12 -4 -16 -9z"/>
<path d="M4140 2170 c0 -13 11 -13 30 0 12 8 11 10 -7 10 -13 0 -23 -4 -23
-10z"/>
<path d="M4100 2160 c-13 -8 -12 -10 3 -10 9 0 17 5 17 10 0 12 -1 12 -20 0z"/>
<path d="M4085 2080 c-3 -5 1 -10 10 -10 9 0 13 5 10 10 -3 6 -8 10 -10 10 -2
0 -7 -4 -10 -10z"/>
<path d="M4128 2083 c7 -3 16 -2 19 1 4 3 -2 6 -13 5 -11 0 -14 -3 -6 -6z"/>
<path d="M4501 1798 c-1 -10 -5 -18 -10 -18 -13 0 -21 -53 -10 -64 5 -6 9 -1
9 13 0 12 5 31 11 42 6 11 8 25 5 32 -2 7 -5 4 -5 -5z"/>
<path d="M4420 1765 c-7 -8 -1 -10 20 -7 17 2 30 7 30 11 0 11 -40 8 -50 -4z"/>
<path d="M4255 1680 c-3 -5 -1 -10 4 -10 6 0 11 5 11 10 0 6 -2 10 -4 10 -3 0
-8 -4 -11 -10z"/>
<path d="M4466 1594 c-4 -9 -4 -19 -1 -22 2 -3 7 3 11 12 4 9 4 19 1 22 -2 3
-7 -3 -11 -12z"/>
<path d="M3336 895 c-16 -36 -26 -68 -24 -71 5 -5 39 69 53 114 12 41 0 22
-29 -43z"/>
<path d="M3297 803 c-4 -3 -7 -13 -7 -22 1 -13 3 -13 11 2 11 19 8 33 -4 20z"/>
<path d="M3490 550 c0 -5 5 -10 11 -10 5 0 7 5 4 10 -3 6 -8 10 -11 10 -2 0
-4 -4 -4 -10z"/>
<path d="M3336 593 c-10 -10 -46 -93 -46 -106 0 -21 19 8 38 61 20 52 21 58 8
45z"/>
<path d="M3348 455 c-28 -54 -35 -85 -20 -85 4 0 14 21 22 47 8 26 20 48 25
50 6 1 18 -11 28 -28 10 -18 20 -29 24 -26 3 3 -2 14 -11 23 -9 9 -20 29 -23
45 -3 16 -8 29 -12 29 -3 0 -18 -25 -33 -55z"/>
<path d="M3470 330 c0 -5 5 -10 11 -10 5 0 7 5 4 10 -3 6 -8 10 -11 10 -2 0
-4 -4 -4 -10z"/>
<path d="M3490 296 c0 -9 5 -16 10 -16 6 0 10 4 10 9 0 6 -4 13 -10 16 -5 3
-10 -1 -10 -9z"/>
<path d="M3278 3675 c-2 -3 -1 -35 4 -72 5 -38 6 -81 3 -96 -3 -20 -1 -27 8
-24 12 4 13 24 7 135 -3 49 -10 68 -22 57z"/>
<path d="M3140 3630 c0 -26 39 -36 93 -22 40 10 40 10 -15 5 -54 -5 -58 -4
-58 16 0 11 -4 21 -10 21 -5 0 -10 -9 -10 -20z"/>
<path d="M3521 3612 c2 -33 17 -78 18 -57 1 11 4 30 7 41 4 14 0 23 -10 27
-11 4 -16 1 -15 -11z"/>
<path d="M3810 3580 c0 -5 9 -10 20 -10 11 0 20 5 20 10 0 6 -9 10 -20 10 -11
0 -20 -4 -20 -10z"/>
<path d="M3767 3553 c-12 -12 -7 -22 8 -17 8 4 15 10 15 15 0 11 -14 12 -23 2z"/>
<path d="M3320 3499 c0 -11 4 -18 10 -14 5 3 7 12 3 20 -7 21 -13 19 -13 -6z"/>
<path d="M4080 3469 c0 -17 4 -28 10 -24 6 3 10 17 10 31 0 13 -4 24 -10 24
-5 0 -10 -14 -10 -31z"/>
<path d="M3158 3453 c7 -3 16 -2 19 1 4 3 -2 6 -13 5 -11 0 -14 -3 -6 -6z"/>
<path d="M3093 3414 c-3 -8 -1 -20 6 -27 8 -8 11 -4 11 16 0 30 -7 35 -17 11z"/>
<path d="M4433 3388 c-34 -35 -57 -84 -47 -99 8 -14 24 -1 18 16 -10 26 42 94
74 95 6 0 12 5 12 10 0 20 -27 9 -57 -22z"/>
<path d="M4035 3390 c3 -5 10 -10 16 -10 5 0 9 5 9 10 0 6 -7 10 -16 10 -8 0
-12 -4 -9 -10z"/>
<path d="M3155 3331 c-3 -5 -1 -12 5 -16 5 -3 10 1 10 9 0 18 -6 21 -15 7z"/>
<path d="M2655 3320 c-3 -6 1 -7 9 -4 18 7 21 14 7 14 -6 0 -13 -4 -16 -10z"/>
<path d="M4600 3300 c0 -5 5 -10 10 -10 6 0 10 5 10 10 0 6 -4 10 -10 10 -5 0
-10 -4 -10 -10z"/>
<path d="M3104 3258 c11 -65 27 -72 24 -10 -2 36 -7 52 -17 52 -10 0 -12 -10
-7 -42z"/>
<path d="M2740 3273 c0 -13 5 -23 10 -23 13 0 13 11 0 30 -8 12 -10 11 -10 -7z"/>
<path d="M3130 3275 c0 -16 13 -31 38 -44 15 -8 22 -8 22 -1 0 6 -8 14 -17 17
-10 4 -23 14 -30 22 -7 9 -12 12 -13 6z"/>
<path d="M4390 3250 c0 -5 10 -15 23 -21 22 -12 22 -12 3 10 -21 23 -26 26
-26 11z"/>
<path d="M2741 3214 c0 -11 3 -14 6 -6 3 7 2 16 -1 19 -3 4 -6 -2 -5 -13z"/>
<path d="M2731 3174 c0 -11 3 -14 6 -6 3 7 2 16 -1 19 -3 4 -6 -2 -5 -13z"/>
<path d="M3116 3167 c-5 -9 -5 -29 0 -45 7 -25 8 -26 11 -4 3 12 3 32 0 45 -3
19 -4 20 -11 4z"/>
<path d="M3067 3123 c-13 -12 -7 -51 8 -57 8 -3 15 -1 15 4 0 6 -4 10 -10 10
-14 0 -12 37 3 43 6 3 7 6 1 6 -6 1 -14 -2 -17 -6z"/>
<path d="M2851 3087 c-13 -13 -15 -47 -2 -47 5 0 13 9 16 20 10 30 33 24 40
-11 5 -24 1 -39 -22 -71 -38 -55 -65 -109 -58 -116 6 -6 28 21 43 53 5 11 20
41 33 67 18 37 21 52 14 74 -11 31 -47 48 -64 31z"/>
<path d="M3128 3074 c-7 -39 -1 -114 9 -114 8 0 10 17 6 58 -6 54 -11 76 -15
56z"/>
<path d="M2825 3020 c3 -5 8 -10 11 -10 2 0 4 5 4 10 0 6 -5 10 -11 10 -5 0
-7 -4 -4 -10z"/>
<path d="M2835 2980 c-4 -12 -5 -24 -2 -27 3 -2 8 5 12 17 4 12 5 24 2 27 -3
2 -8 -5 -12 -17z"/>
<path d="M2920 2965 c-8 -9 -8 -15 -2 -15 12 0 26 19 19 26 -2 2 -10 -2 -17
-11z"/>
<path d="M2950 2973 c0 -5 5 -15 10 -23 8 -12 10 -11 10 8 0 12 -4 22 -10 22
-5 0 -10 -3 -10 -7z"/>
<path d="M2947 2923 c-4 -3 -7 -11 -7 -17 0 -6 5 -5 12 2 6 6 9 14 7 17 -3 3
-9 2 -12 -2z"/>
<path d="M4665 2890 c26 -27 27 -33 22 -81 -6 -48 -5 -51 9 -37 8 8 17 31 19
51 2 28 -3 41 -27 66 -17 17 -35 31 -41 31 -6 0 2 -13 18 -30z"/>
<path d="M2875 2884 c-16 -25 -16 -29 -1 -55 9 -15 16 -35 16 -45 0 -13 3 -15
11 -7 8 8 6 18 -6 37 -14 21 -15 31 -6 57 14 41 8 47 -14 13z"/>
<path d="M3201 2875 c-13 -19 -28 -35 -33 -35 -11 0 -7 -79 4 -86 4 -3 8 9 8
26 0 18 8 44 19 58 17 25 36 72 29 72 -2 0 -14 -16 -27 -35z"/>
<path d="M2797 2854 c-10 -11 -9 -44 2 -44 15 0 19 13 12 33 -4 10 -10 15 -14
11z"/>
<path d="M3030 2800 c0 -19 3 -21 12 -12 9 9 9 15 0 24 -9 9 -12 7 -12 -12z"/>
<path d="M3170 2724 c0 -8 5 -12 10 -9 6 3 10 10 10 16 0 5 -4 9 -10 9 -5 0
-10 -7 -10 -16z"/>
<path d="M1820 2520 c0 -15 39 -72 40 -58 0 4 -9 22 -20 40 -11 18 -20 26 -20
18z"/>
<path d="M1954 2315 c-4 -8 -11 -15 -18 -15 -18 -1 -50 -80 -37 -93 8 -8 11
-4 11 14 0 16 12 36 30 52 17 15 30 34 30 42 0 19 -9 19 -16 0z"/>
<path d="M1781 2180 c0 -8 8 -33 19 -55 23 -47 25 -72 8 -77 -7 -3 1 -5 19 -5
l32 0 -20 25 c-10 14 -19 30 -19 36 -1 18 -39 93 -39 76z"/>
<path d="M1916 2174 c-9 -24 -7 -28 9 -14 17 14 20 30 6 30 -5 0 -12 -7 -15
-16z"/>
<path d="M1940 2150 c0 -5 5 -10 10 -10 6 0 10 5 10 10 0 6 -4 10 -10 10 -5 0
-10 -4 -10 -10z"/>
<path d="M1880 2060 c-10 -6 -11 -10 -2 -10 6 0 12 -9 12 -20 0 -11 5 -20 10
-20 6 0 10 -11 10 -25 0 -14 4 -25 8 -25 10 0 10 46 0 56 -5 4 -8 18 -8 31 0
25 -7 28 -30 13z"/>
<path d="M1710 1991 c-13 -25 -13 -51 0 -51 6 0 10 10 10 23 0 13 5 28 12 35
9 9 9 12 0 12 -6 0 -16 -9 -22 -19z"/>
<path d="M1831 1942 c-1 -24 19 -38 41 -29 8 4 5 8 -9 12 -12 4 -24 14 -26 24
-3 11 -5 8 -6 -7z"/>
<path d="M1920 1930 c-1 -14 -4 -19 -7 -12 -2 6 -9 12 -15 12 -6 0 -3 -9 6
-19 10 -11 15 -25 11 -31 -10 -15 -14 -80 -5 -75 4 3 14 25 21 50 7 25 17 45
21 45 4 0 8 7 8 16 0 10 -6 14 -14 11 -9 -4 -17 1 -19 11 -3 11 -5 9 -7 -8z"/>
<path d="M1800 1910 c0 -5 5 -10 11 -10 5 0 7 5 4 10 -3 6 -8 10 -11 10 -2 0
-4 -4 -4 -10z"/>
<path d="M1720 1801 c0 -6 5 -13 10 -16 6 -3 10 1 10 9 0 9 -4 16 -10 16 -5 0
-10 -4 -10 -9z"/>
<path d="M1750 1759 c0 -12 40 -48 53 -49 10 0 -35 59 -45 59 -5 1 -8 -4 -8
-10z"/>
<path d="M1570 1730 c0 -22 33 -60 52 -60 6 0 2 10 -10 23 -12 13 -22 31 -22
40 0 9 -4 17 -10 17 -5 0 -10 -9 -10 -20z"/>
<path d="M1670 1682 c0 -4 6 -14 13 -21 11 -11 18 -111 8 -111 -3 0 -13 7 -23
17 -11 9 -18 11 -18 5 0 -7 5 -12 10 -12 6 0 10 -17 10 -37 0 -21 11 -60 25
-87 15 -30 25 -41 25 -30 0 11 -7 29 -15 40 -8 10 -15 29 -15 42 0 17 6 22 28
23 18 1 21 3 9 6 -15 4 -18 14 -17 66 1 34 1 67 1 72 -1 12 -41 39 -41 27z"/>
<path d="M1756 1665 c4 -8 10 -12 15 -9 14 8 10 24 -6 24 -9 0 -12 -6 -9 -15z"/>
<path d="M1762 1628 c-11 -14 -9 -20 13 -42 23 -23 25 -23 25 -6 0 11 -4 20
-9 20 -5 0 -11 10 -13 22 -3 19 -4 20 -16 6z"/>
<path d="M1747 1560 c3 -11 9 -20 14 -20 11 0 11 3 3 24 -9 23 -23 20 -17 -4z"/>
<path d="M1752 1510 c0 -14 2 -19 5 -12 2 6 2 18 0 25 -3 6 -5 1 -5 -13z"/>
<path d="M1628 1503 c7 -3 16 -2 19 1 4 3 -2 6 -13 5 -11 0 -14 -3 -6 -6z"/>
<path d="M1543 1426 c3 -8 11 -32 18 -55 7 -22 23 -48 36 -56 28 -18 31 -2 4
17 -11 8 -23 27 -26 43 -13 56 -16 65 -27 65 -5 0 -8 -6 -5 -14z"/>
<path d="M1472 1418 c-14 -14 -16 -42 -2 -33 14 9 32 45 22 45 -4 0 -13 -5
-20 -12z"/>
<path d="M1647 1393 c-10 -9 -9 -23 2 -23 5 0 11 7 15 15 5 15 -5 20 -17 8z"/>
<path d="M1710 1370 c0 -5 5 -10 11 -10 5 0 7 5 4 10 -3 6 -8 10 -11 10 -2 0
-4 -4 -4 -10z"/>
<path d="M2910 1358 c0 -7 4 -19 9 -27 11 -17 23 1 15 23 -7 19 -24 21 -24 4z"/>
<path d="M1640 1322 c0 -5 11 -14 25 -20 29 -14 34 2 6 18 -24 12 -31 13 -31
2z"/>
<path d="M3067 1293 c-4 -6 -3 -21 1 -34 5 -13 11 -18 15 -12 4 6 3 21 -1 34
-5 13 -11 18 -15 12z"/>
<path d="M4605 1250 c3 -5 8 -10 11 -10 2 0 4 5 4 10 0 6 -5 10 -11 10 -5 0
-7 -4 -4 -10z"/>
<path d="M1660 1190 c-12 -17 -19 -38 -16 -46 9 -23 28 -6 20 18 -4 15 -3 18
7 13 9 -6 11 -4 6 7 -3 9 0 21 6 27 6 6 8 11 5 11 -4 0 -16 -14 -28 -30z"/>
<path d="M4740 1215 c0 -3 7 -14 16 -22 23 -23 -2 -103 -27 -87 -15 9 -10 -31
6 -52 15 -18 15 -18 9 9 -3 15 -2 27 3 27 5 0 17 14 27 30 9 17 22 28 27 25 5
-4 9 3 9 15 0 13 -5 20 -12 18 -7 -3 -17 4 -23 15 -10 20 -35 35 -35 22z"/>
<path d="M1693 1163 c-7 -15 -13 -33 -13 -40 0 -15 -14 -17 -40 -3 -13 7 -21
6 -30 -5 -11 -13 -10 -14 4 -9 22 8 20 -3 -7 -51 -26 -47 -57 -59 -57 -23 0
18 -2 20 -10 8 -7 -11 -4 -20 11 -32 23 -20 39 -23 39 -8 0 5 12 29 27 54 22
36 32 44 49 40 23 -6 38 15 28 39 -3 8 2 20 11 27 16 13 20 30 8 30 -5 0 -14
-12 -20 -27z"/>
<path d="M1580 1165 c-7 -9 -11 -18 -8 -20 3 -3 11 1 18 10 7 9 11 18 8 20 -3
3 -11 -1 -18 -10z"/>
<path d="M1546 1114 c-4 -9 -1 -23 5 -30 13 -16 29 -18 29 -4 0 6 -7 10 -16
10 -11 0 -14 6 -9 20 8 24 0 27 -9 4z"/>
<path d="M2991 1095 c-1 -26 21 -103 25 -90 2 6 -3 33 -10 60 -8 28 -15 41
-15 30z"/>
<path d="M2930 984 c0 -8 5 -12 10 -9 6 4 8 11 5 16 -9 14 -15 11 -15 -7z"/>
<path d="M3034 927 c4 -18 1 -31 -11 -43 -13 -13 -14 -19 -5 -22 9 -3 6 -12
-9 -33 -18 -26 -19 -31 -6 -44 14 -13 16 -10 22 25 4 22 10 38 13 36 4 -2 8
18 9 45 2 27 -2 51 -9 55 -7 5 -9 -1 -4 -19z"/>
<path d="M1674 876 c-28 -27 -47 -64 -40 -79 3 -8 5 -8 5 1 1 8 11 26 22 40
l22 27 -5 -25 c-3 -14 -9 -33 -13 -42 -4 -10 -3 -18 2 -18 9 0 39 108 31 114
-1 2 -13 -6 -24 -18z"/>
<path d="M4726 865 c4 -8 11 -15 16 -15 7 0 8 -15 4 -40 -7 -48 -2 -51 19 -11
14 28 14 31 -9 55 -26 29 -38 33 -30 11z"/>
<path d="M1466 849 c3 -5 28 -9 55 -9 30 0 48 4 44 10 -3 5 -28 9 -55 9 -27
-1 -47 -6 -44 -10z"/>
<path d="M1660 758 c0 -9 -3 -23 -6 -32 -3 -9 -2 -16 4 -16 15 0 23 30 12 48
-9 16 -9 16 -10 0z"/>
<path d="M1732 718 c-7 -7 -12 -18 -12 -25 0 -7 -7 -13 -16 -13 -10 0 -14 -6
-11 -15 4 -8 2 -17 -3 -20 -12 -8 -13 -25 -1 -25 5 0 11 9 14 21 4 16 11 19
27 14 18 -6 20 -4 14 19 -4 16 -1 32 6 41 15 18 -1 20 -18 3z"/>
<path d="M4665 693 c12 -30 15 -72 5 -78 -6 -3 -10 -19 -10 -35 0 -16 -4 -32
-10 -35 -15 -9 -12 -25 5 -25 8 0 15 7 15 16 0 9 7 31 16 50 14 30 15 41 4 79
-7 25 -17 45 -22 45 -6 0 -7 -8 -3 -17z"/>
<path d="M1618 583 c6 -2 18 -2 25 0 6 3 1 5 -13 5 -14 0 -19 -2 -12 -5z"/>
<path d="M1530 563 c-17 -7 -40 -29 -40 -38 0 -4 12 3 26 14 14 11 31 18 37
16 7 -2 26 -6 42 -9 l30 -6 -25 15 c-26 15 -45 17 -70 8z"/>
<path d="M3590 555 c0 -14 44 -85 52 -85 6 0 3 11 -6 25 -9 13 -16 31 -16 39
0 7 -7 16 -15 20 -8 3 -15 3 -15 1z"/>
<path d="M1648 530 c12 -5 25 -16 28 -25 4 -8 14 -15 23 -15 12 1 9 7 -12 25
-15 14 -36 25 -45 24 -12 0 -11 -3 6 -9z"/>
<path d="M1687 464 c-8 -8 1 -24 14 -24 5 0 9 7 9 15 0 15 -12 20 -23 9z"/>
<path d="M1720 460 c0 -5 4 -10 9 -10 6 0 13 5 16 10 3 6 -1 10 -9 10 -9 0
-16 -4 -16 -10z"/>
<path d="M1498 420 c-4 -24 -2 -27 9 -19 15 13 18 49 4 49 -5 0 -11 -13 -13
-30z"/>
<path d="M3590 435 c-6 -8 -10 -19 -8 -26 2 -6 9 0 16 15 13 29 10 33 -8 11z"/>
<path d="M4625 440 c-19 -8 -19 -9 3 -9 12 -1 22 4 22 9 0 6 -1 10 -2 9 -2 0
-12 -4 -23 -9z"/>
<path d="M1345 423 c-12 -29 -15 -113 -5 -113 6 0 10 11 10 25 0 14 3 25 8 25
8 0 9 66 1 75 -4 3 -10 -2 -14 -12z"/>
<path d="M1454 388 c-9 -29 -19 -60 -22 -68 -3 -10 0 -9 10 3 8 11 21 17 30
15 9 -1 16 2 15 7 -1 6 -5 9 -9 8 -4 -2 -6 17 -3 42 2 25 2 45 0 45 -2 0 -11
-24 -21 -52z"/>
<path d="M1602 398 c-1 -20 -6 -40 -12 -43 -5 -3 -10 -11 -10 -18 0 -7 6 -5
16 4 10 11 14 29 11 55 l-4 39 -1 -37z"/>
<path d="M1740 415 c0 -9 6 -12 15 -9 8 4 15 7 15 9 0 2 -7 5 -15 9 -9 3 -15
0 -15 -9z"/>
<path d="M1700 409 c0 -6 -7 -8 -15 -5 -11 4 -19 -3 -25 -20 -13 -32 -13 -44
0 -44 6 0 10 9 10 20 0 11 2 20 4 20 2 0 11 3 20 6 12 4 16 0 16 -15 0 -13 6
-21 16 -21 11 0 14 5 9 18 -4 9 -10 25 -12 35 -6 19 -23 24 -23 6z"/>
<path d="M4553 350 c-77 -69 -163 -159 -163 -170 0 -6 5 -10 10 -10 6 0 10 4
10 9 0 16 53 61 72 61 12 0 17 4 12 12 -5 7 19 36 61 74 38 35 66 66 63 69 -3
4 -32 -17 -65 -45z"/>
<path d="M1307 363 c-10 -9 -9 -23 2 -23 5 0 11 7 15 15 5 15 -5 20 -17 8z"/>
<path d="M1525 360 c-8 -13 -1 -24 14 -19 6 3 7 10 2 18 -6 10 -10 10 -16 1z"/>
<path d="M1628 294 c-16 -8 -28 -18 -28 -23 0 -10 69 21 70 32 0 10 -11 8 -42
-9z"/>
<path d="M1555 250 c-3 -5 1 -10 10 -10 9 0 13 5 10 10 -3 6 -8 10 -10 10 -2
0 -7 -4 -10 -10z"/>
<path d="M1640 220 c0 -5 7 -7 15 -4 8 4 15 8 15 10 0 2 -7 4 -15 4 -8 0 -15
-4 -15 -10z"/>
<path d="M1675 199 c-11 -17 -2 -18 19 -3 17 12 17 14 4 14 -9 0 -20 -5 -23
-11z"/>
<path d="M3041 173 c-7 -18 -17 -33 -22 -33 -5 0 -9 -4 -9 -10 0 -18 19 -10
36 15 8 13 14 32 12 42 -2 13 -7 10 -17 -14z"/>
<path d="M3892 139 c-12 -23 -18 -47 -15 -53 4 -5 11 1 16 15 5 13 14 34 20
46 19 42 0 34 -21 -8z"/>
<path d="M1756 144 c-4 -9 -4 -19 -1 -22 2 -3 7 3 11 12 4 9 4 19 1 22 -2 3
-7 -3 -11 -12z"/>
<path d="M2040 143 c-8 -3 -26 -10 -39 -15 -36 -13 -20 -19 22 -7 20 5 37 14
37 19 0 6 -1 10 -2 9 -2 0 -10 -3 -18 -6z"/>
<path d="M4080 141 c0 -6 5 -13 10 -16 6 -3 10 1 10 9 0 9 -4 16 -10 16 -5 0
-10 -4 -10 -9z"/>
<path d="M1781 128 c-1 -9 -4 -23 -7 -32 -3 -9 -2 -16 4 -16 15 0 20 22 11 45
-6 16 -8 16 -8 3z"/>
<path d="M1843 128 c-18 -6 -33 -14 -33 -19 0 -4 16 -2 35 4 19 6 35 14 35 19
0 4 -1 8 -2 7 -2 -1 -18 -6 -35 -11z"/>
<path d="M2879 122 c-13 -9 -42 -27 -64 -39 -116 -62 -150 -83 -132 -83 26 0
227 116 227 131 0 13 -4 12 -31 -9z"/>
<path d="M2083 118 c-18 -6 -33 -15 -33 -19 0 -5 -7 -9 -15 -9 -8 0 -15 -7
-15 -15 0 -12 6 -11 33 5 17 11 39 20 48 20 9 0 22 7 29 15 15 18 3 19 -47 3z"/>
<path d="M1942 93 c-6 -2 -10 -9 -7 -13 7 -11 35 -2 35 11 0 10 -8 10 -28 2z"/>
<path d="M2956 71 c-4 -5 -2 -12 3 -15 5 -4 12 -2 15 3 4 5 2 12 -3 15 -5 4
-12 2 -15 -3z"/>
<path d="M2992 46 c-15 -33 -11 -44 7 -22 7 8 11 23 9 32 -2 14 -6 11 -16 -10z"/>
<path d="M2586 22 c-2 -2 -41 -7 -87 -12 l-84 -9 90 5 c50 2 106 8 125 13 l35
9 -38 -1 c-21 -1 -39 -3 -41 -5z"/>
</g>
</svg>
